<svg xmlns="http://www.w3.org/2000/svg" xmlns:xlink="http://www.w3.org/1999/xlink" width="1080" zoomAndPan="magnify" viewBox="0 0 810 809.999993" height="1080" preserveAspectRatio="xMidYMid meet" version="1.2"><defs><clipPath id="474b973696"><path d="M 101.746094 101.746094 L 708.253906 101.746094 L 708.253906 708.253906 L 101.746094 708.253906 Z M 101.746094 101.746094 "/></clipPath><clipPath id="9026555675"><path d="M 405 101.746094 C 237.519531 101.746094 101.746094 237.519531 101.746094 405 C 101.746094 572.480469 237.519531 708.253906 405 708.253906 C 572.480469 708.253906 708.253906 572.480469 708.253906 405 C 708.253906 237.519531 572.480469 101.746094 405 101.746094 Z M 405 101.746094 "/></clipPath><clipPath id="9cf6670296"><path d="M 101.746094 101.746094 L 707.90625 101.746094 L 707.90625 707.90625 L 101.746094 707.90625 Z M 101.746094 101.746094 "/></clipPath><clipPath id="37d8f23c00"><path d="M 404.828125 101.746094 C 237.441406 101.746094 101.746094 237.441406 101.746094 404.828125 C 101.746094 572.214844 237.441406 707.90625 404.828125 707.90625 C 572.214844 707.90625 707.90625 572.214844 707.90625 404.828125 C 707.90625 237.441406 572.214844 101.746094 404.828125 101.746094 Z M 404.828125 101.746094 "/></clipPath><clipPath id="e61157bde4"><path d="M 490.421875 223.058594 L 596.859375 223.058594 L 596.859375 329.496094 L 490.421875 329.496094 Z M 490.421875 223.058594 "/></clipPath><clipPath id="2df1f174a7"><path d="M 543.640625 223.058594 C 514.25 223.058594 490.421875 246.886719 490.421875 276.277344 C 490.421875 305.667969 514.25 329.496094 543.640625 329.496094 C 573.035156 329.496094 596.859375 305.667969 596.859375 276.277344 C 596.859375 246.886719 573.035156 223.058594 543.640625 223.058594 Z M 543.640625 223.058594 "/></clipPath><clipPath id="1b18286fc8"><path d="M 490.421875 223.058594 L 596.855469 223.058594 L 596.855469 329.492188 L 490.421875 329.492188 Z M 490.421875 223.058594 "/></clipPath><clipPath id="887391cbd9"><path d="M 543.640625 223.058594 C 514.25 223.058594 490.421875 246.886719 490.421875 276.277344 C 490.421875 305.667969 514.25 329.492188 543.640625 329.492188 C 573.03125 329.492188 596.855469 305.667969 596.855469 276.277344 C 596.855469 246.886719 573.03125 223.058594 543.640625 223.058594 Z M 543.640625 223.058594 "/></clipPath><clipPath id="efcb9c815a"><path d="M 563.601562 340.078125 L 607.730469 340.078125 L 607.730469 384.207031 L 563.601562 384.207031 Z M 563.601562 340.078125 "/></clipPath><clipPath id="73cf97857a"><path d="M 585.664062 340.078125 C 573.476562 340.078125 563.601562 349.957031 563.601562 362.144531 C 563.601562 374.328125 573.476562 384.207031 585.664062 384.207031 C 597.851562 384.207031 607.730469 374.328125 607.730469 362.144531 C 607.730469 349.957031 597.851562 340.078125 585.664062 340.078125 Z M 585.664062 340.078125 "/></clipPath><clipPath id="bdc24006cb"><path d="M 563.601562 340.078125 L 607.707031 340.078125 L 607.707031 384.1875 L 563.601562 384.1875 Z M 563.601562 340.078125 "/></clipPath><clipPath id="8a95ca58df"><path d="M 585.652344 340.078125 C 573.472656 340.078125 563.601562 349.953125 563.601562 362.132812 C 563.601562 374.3125 573.472656 384.1875 585.652344 384.1875 C 597.832031 384.1875 607.707031 374.3125 607.707031 362.132812 C 607.707031 349.953125 597.832031 340.078125 585.652344 340.078125 Z M 585.652344 340.078125 "/></clipPath></defs><g id="6e320bb7d1"><g clip-rule="nonzero" clip-path="url(#474b973696)"><g clip-rule="nonzero" clip-path="url(#9026555675)"><path style=" stroke:none;fill-rule:nonzero;fill:#d9eceb;fill-opacity:1;" d="M 101.746094 101.746094 L 708.253906 101.746094 L 708.253906 708.253906 L 101.746094 708.253906 Z M 101.746094 101.746094 "/></g></g><g clip-rule="nonzero" clip-path="url(#9cf6670296)"><g clip-rule="nonzero" clip-path="url(#37d8f23c00)"><path style="fill:none;stroke-width:0.93787;stroke-linecap:butt;stroke-linejoin:miter;stroke:#000000;stroke-opacity:1;stroke-miterlimit:4;" d="M 189.601963 -0.000644807 C 84.887881 -0.000644807 -0.000634485 84.887871 -0.000634485 189.601952 C -0.000634485 294.316034 84.887881 379.202106 189.601963 379.202106 C 294.316044 379.202106 379.202116 294.316034 379.202116 189.601952 C 379.202116 84.887871 294.316044 -0.000644807 189.601963 -0.000644807 Z M 189.601963 -0.000644807 " transform="matrix(1.598512,0,0,1.598512,101.747108,101.747124)"/></g></g><g clip-rule="nonzero" clip-path="url(#e61157bde4)"><g clip-rule="nonzero" clip-path="url(#2df1f174a7)"><path style=" stroke:none;fill-rule:nonzero;fill:#ffffff;fill-opacity:1;" d="M 490.421875 223.058594 L 596.859375 223.058594 L 596.859375 329.496094 L 490.421875 329.496094 Z M 490.421875 223.058594 "/></g></g><g clip-rule="nonzero" clip-path="url(#1b18286fc8)"><g clip-rule="nonzero" clip-path="url(#887391cbd9)"><path style="fill:none;stroke-width:0.93787;stroke-linecap:butt;stroke-linejoin:miter;stroke:#000000;stroke-opacity:1;stroke-miterlimit:4;" d="M 33.273626 -0.000796707 C 14.897236 -0.000796707 -0.00122037 14.897659 -0.00122037 33.27405 C -0.00122037 51.650441 14.897236 66.546454 33.273626 66.546454 C 51.650017 66.546454 66.546031 51.650441 66.546031 33.27405 C 66.546031 14.897659 51.650017 -0.000796707 33.273626 -0.000796707 Z M 33.273626 -0.000796707 " transform="matrix(1.599369,0,0,1.599369,490.423827,223.059868)"/></g></g><g clip-rule="nonzero" clip-path="url(#efcb9c815a)"><g clip-rule="nonzero" clip-path="url(#73cf97857a)"><path style=" stroke:none;fill-rule:nonzero;fill:#ffffff;fill-opacity:1;" d="M 563.601562 340.078125 L 607.730469 340.078125 L 607.730469 384.207031 L 563.601562 384.207031 Z M 563.601562 340.078125 "/></g></g><g clip-rule="nonzero" clip-path="url(#bdc24006cb)"><g clip-rule="nonzero" clip-path="url(#8a95ca58df)"><path style="fill:none;stroke-width:0.93787;stroke-linecap:butt;stroke-linejoin:miter;stroke:#000000;stroke-opacity:1;stroke-miterlimit:4;" d="M 13.788325 -0.000441856 C 6.173016 -0.000441856 0.00114755 6.173869 0.00114755 13.789178 C 0.00114755 21.404487 6.173016 27.578798 13.788325 27.578798 C 21.403634 27.578798 27.577945 21.404487 27.577945 13.789178 C 27.577945 6.173869 21.403634 -0.000441856 13.788325 -0.000441856 Z M 13.788325 -0.000441856 " transform="matrix(1.599369,0,0,1.599369,563.599727,340.078832)"/></g></g></g></svg>