<svg xmlns="http://www.w3.org/2000/svg" xmlns:xlink="http://www.w3.org/1999/xlink" width="1080" zoomAndPan="magnify" viewBox="0 0 810 809.999993" height="1080" preserveAspectRatio="xMidYMid meet" version="1.2"><defs><clipPath id="b6873d1a6f"><path d="M 164 143 L 646 143 L 646 667 L 164 667 Z M 164 143 "/></clipPath><clipPath id="40ea0a4364"><path d="M 285.839844 71.613281 L 749.644531 323.328125 L 524.335938 738.480469 L 60.53125 486.769531 Z M 285.839844 71.613281 "/></clipPath><clipPath id="2a0ac31a5f"><path d="M 608.742188 559.089844 L 450.917969 655.121094 C 427.515625 669.363281 398.304688 670.082031 374.226562 657.015625 L 210.464844 568.140625 C 186.382812 555.074219 171.070312 530.1875 170.257812 502.804688 L 164.769531 318.140625 C 163.957031 290.800781 177.886719 265.128906 201.257812 250.910156 L 359.078125 154.878906 C 382.484375 140.640625 411.695312 139.917969 435.773438 152.984375 L 599.535156 241.859375 C 623.613281 254.929688 638.925781 279.8125 639.738281 307.199219 L 645.226562 491.859375 C 646.042969 519.199219 632.109375 544.871094 608.742188 559.089844 Z M 608.742188 559.089844 "/></clipPath><clipPath id="26cf9b6fba"><path d="M 164 143 L 646 143 L 646 667 L 164 667 Z M 164 143 "/></clipPath><clipPath id="33d86758e9"><path d="M 276.109375 66.335938 L 759.289062 328.5625 L 533.910156 743.84375 L 50.730469 481.617188 Z M 276.109375 66.335938 "/></clipPath><clipPath id="febcc4a8e6"><path d="M 283.65625 70.433594 L 751.644531 324.414062 L 526.339844 739.5625 L 58.351562 485.582031 Z M 283.65625 70.433594 "/></clipPath><clipPath id="7eaf15aa07"><path d="M 608.738281 559.085938 L 450.917969 655.113281 C 427.515625 669.355469 398.304688 670.078125 374.226562 657.007812 L 210.464844 568.136719 C 186.386719 555.066406 171.074219 530.183594 170.261719 502.800781 L 164.769531 318.140625 C 163.957031 290.800781 177.890625 265.128906 201.257812 250.910156 L 359.078125 154.878906 C 382.484375 140.640625 411.695312 139.917969 435.773438 152.984375 L 599.53125 241.859375 C 623.609375 254.925781 638.921875 279.8125 639.738281 307.195312 L 645.226562 491.855469 C 646.039062 519.195312 632.105469 544.867188 608.738281 559.085938 Z M 608.738281 559.085938 "/></clipPath><clipPath id="2354fa05cf"><path d="M 197 181 L 613 181 L 613 629 L 197 629 Z M 197 181 "/></clipPath><clipPath id="06286c11c2"><path d="M 303.578125 118.097656 L 700.976562 333.769531 L 506.570312 691.988281 L 109.171875 476.316406 Z M 303.578125 118.097656 "/></clipPath><clipPath id="4b2e8d70e0"><path d="M 575.613281 541.113281 L 449.804688 617.664062 C 426.402344 631.90625 397.191406 632.628906 373.109375 619.558594 L 242.476562 548.664062 C 218.398438 535.59375 203.082031 510.710938 202.269531 483.324219 L 197.894531 336.121094 C 197.082031 308.78125 211.015625 283.109375 234.382812 268.890625 L 360.191406 192.339844 C 383.59375 178.097656 412.804688 177.375 436.886719 190.445312 L 567.519531 261.339844 C 591.597656 274.410156 606.914062 299.292969 607.726562 326.679688 L 612.101562 473.882812 C 612.914062 501.222656 598.980469 526.894531 575.613281 541.113281 Z M 575.613281 541.113281 "/></clipPath><clipPath id="a38c156c34"><path d="M 197 181 L 612 181 L 612 629 L 197 629 Z M 197 181 "/></clipPath><clipPath id="63f74d35fa"><path d="M 293.785156 112.78125 L 710.386719 338.875 L 516.132812 696.8125 L 99.527344 470.71875 Z M 293.785156 112.78125 "/></clipPath><clipPath id="1418f6ca6f"><path d="M 300.292969 116.3125 L 703.78125 335.292969 L 509.527344 693.226562 L 106.039062 474.25 Z M 300.292969 116.3125 "/></clipPath><clipPath id="083cf652b9"><path d="M 575.390625 540.773438 L 449.679688 617.265625 C 426.292969 631.492188 397.105469 632.214844 373.046875 619.15625 L 242.515625 548.316406 C 218.457031 535.257812 203.15625 510.394531 202.34375 483.03125 L 197.96875 335.945312 C 197.15625 308.625 211.078125 282.972656 234.429688 268.765625 L 360.136719 192.277344 C 383.523438 178.046875 412.710938 177.324219 436.769531 190.382812 L 567.300781 261.222656 C 591.363281 274.28125 606.664062 299.144531 607.476562 326.507812 L 611.847656 473.59375 C 612.660156 500.914062 598.738281 526.566406 575.390625 540.773438 Z M 575.390625 540.773438 "/></clipPath><clipPath id="df0ce881c6"><path d="M 341 224 L 457 224 L 457 349 L 341 349 Z M 341 224 "/></clipPath><clipPath id="a40fcc0897"><path d="M 371.46875 206.960938 L 481.023438 266.414062 L 426.664062 366.578125 L 317.113281 307.121094 Z M 371.46875 206.960938 "/></clipPath><clipPath id="0356a8493b"><path d="M 444.507812 326.179688 L 413.820312 344.855469 C 405.886719 349.679688 395.984375 349.925781 387.820312 345.496094 L 355.910156 328.179688 C 347.75 323.75 342.558594 315.3125 342.28125 306.03125 L 341.214844 270.121094 C 340.941406 260.855469 345.664062 252.152344 353.582031 247.332031 L 384.273438 228.660156 C 392.207031 223.832031 402.109375 223.585938 410.269531 228.015625 L 442.179688 245.332031 C 450.34375 249.761719 455.535156 258.199219 455.808594 267.480469 L 456.875 303.390625 C 457.152344 312.660156 452.429688 321.359375 444.507812 326.179688 Z M 444.507812 326.179688 "/></clipPath><clipPath id="d907de0052"><path d="M 341 224 L 457 224 L 457 349 L 341 349 Z M 341 224 "/></clipPath><clipPath id="b619b0a2f5"><path d="M 367.949219 205.046875 L 484.625 268.367188 L 430.246094 368.5625 L 313.570312 305.242188 Z M 367.949219 205.046875 "/></clipPath><clipPath id="deca3a0879"><path d="M 369.773438 206.039062 L 482.675781 267.3125 L 428.320312 367.464844 L 315.417969 306.191406 Z M 369.773438 206.039062 "/></clipPath><clipPath id="0c43701c51"><path d="M 444.507812 326.171875 L 413.820312 344.84375 C 405.886719 349.671875 395.984375 349.917969 387.824219 345.488281 L 355.917969 328.171875 C 347.753906 323.742188 342.566406 315.308594 342.289062 306.023438 L 341.222656 270.121094 C 340.945312 260.851562 345.667969 252.152344 353.589844 247.332031 L 384.277344 228.660156 C 392.207031 223.832031 402.109375 223.585938 410.273438 228.015625 L 442.179688 245.332031 C 450.339844 249.761719 455.53125 258.199219 455.804688 267.480469 L 456.875 303.382812 C 457.148438 312.652344 452.425781 321.355469 444.507812 326.171875 Z M 444.507812 326.171875 "/></clipPath><clipPath id="1afc1a54ba"><path d="M 462 330 L 579 330 L 579 455 L 462 455 Z M 462 330 "/></clipPath><clipPath id="7295c0750c"><path d="M 492.804688 312.871094 L 602.355469 372.324219 L 547.996094 472.488281 L 438.445312 413.03125 Z M 492.804688 312.871094 "/></clipPath><clipPath id="29661b40f2"><path d="M 565.839844 432.09375 L 535.152344 450.765625 C 527.21875 455.59375 517.316406 455.835938 509.15625 451.40625 L 477.246094 434.089844 C 469.082031 429.660156 463.890625 421.226562 463.617188 411.941406 L 462.550781 376.035156 C 462.273438 366.765625 466.996094 358.0625 474.917969 353.242188 L 505.605469 334.570312 C 513.539062 329.742188 523.441406 329.5 531.605469 333.929688 L 563.511719 351.246094 C 571.675781 355.675781 576.867188 364.109375 577.144531 373.394531 L 578.210938 409.300781 C 578.484375 418.570312 573.761719 427.273438 565.839844 432.09375 Z M 565.839844 432.09375 "/></clipPath><clipPath id="74cb88c1ba"><path d="M 462 330 L 579 330 L 579 455 L 462 455 Z M 462 330 "/></clipPath><clipPath id="4798d77887"><path d="M 489.28125 310.960938 L 605.957031 374.28125 L 551.582031 474.476562 L 434.90625 411.15625 Z M 489.28125 310.960938 "/></clipPath><clipPath id="86db8aed16"><path d="M 491.109375 311.949219 L 604.007812 373.222656 L 549.65625 473.378906 L 436.753906 412.105469 Z M 491.109375 311.949219 "/></clipPath><clipPath id="cae21b8404"><path d="M 565.839844 432.085938 L 535.152344 450.757812 C 527.21875 455.582031 517.320312 455.828125 509.15625 451.398438 L 477.25 434.082031 C 469.089844 429.652344 463.898438 421.21875 463.621094 411.9375 L 462.554688 376.03125 C 462.28125 366.761719 467.003906 358.0625 474.921875 353.242188 L 505.609375 334.570312 C 513.542969 329.742188 523.445312 329.5 531.605469 333.929688 L 563.511719 351.246094 C 571.671875 355.671875 576.863281 364.109375 577.140625 373.390625 L 578.207031 409.296875 C 578.484375 418.5625 573.761719 427.265625 565.839844 432.085938 Z M 565.839844 432.085938 "/></clipPath><clipPath id="db84064b98"><path d="M 354 464 L 471 464 L 471 589 L 354 589 Z M 354 464 "/></clipPath><clipPath id="d601a3f7a7"><path d="M 385.128906 446.855469 L 494.683594 506.3125 L 440.324219 606.472656 L 330.773438 547.019531 Z M 385.128906 446.855469 "/></clipPath><clipPath id="2560080739"><path d="M 458.167969 566.078125 L 427.480469 584.75 C 419.546875 589.578125 409.644531 589.824219 401.480469 585.394531 L 369.570312 568.078125 C 361.410156 563.648438 356.21875 555.210938 355.941406 545.929688 L 354.875 510.019531 C 354.601562 500.753906 359.324219 492.050781 367.242188 487.230469 L 397.933594 468.554688 C 405.867188 463.730469 415.769531 463.484375 423.929688 467.914062 L 455.839844 485.230469 C 464.003906 489.660156 469.195312 498.097656 469.46875 507.378906 L 470.535156 543.289062 C 470.8125 552.554688 466.089844 561.257812 458.167969 566.078125 Z M 458.167969 566.078125 "/></clipPath><clipPath id="fd998f0dbf"><path d="M 354 464 L 471 464 L 471 589 L 354 589 Z M 354 464 "/></clipPath><clipPath id="fcd3c09524"><path d="M 381.609375 444.945312 L 498.285156 508.265625 L 443.90625 608.460938 L 327.230469 545.140625 Z M 381.609375 444.945312 "/></clipPath><clipPath id="ad2df15d31"><path d="M 383.433594 445.9375 L 496.335938 507.210938 L 441.980469 607.363281 L 329.078125 546.089844 Z M 383.433594 445.9375 "/></clipPath><clipPath id="6b9d2aeaa1"><path d="M 458.167969 566.070312 L 427.480469 584.742188 C 419.546875 589.570312 409.644531 589.8125 401.484375 585.386719 L 369.578125 568.070312 C 361.414062 563.640625 356.226562 555.203125 355.949219 545.921875 L 354.882812 510.015625 C 354.605469 500.75 359.328125 492.046875 367.25 487.230469 L 397.9375 468.558594 C 405.867188 463.730469 415.769531 463.484375 423.933594 467.914062 L 455.839844 485.230469 C 464 489.660156 469.191406 498.09375 469.464844 507.378906 L 470.535156 543.28125 C 470.808594 552.550781 466.085938 561.25 458.167969 566.070312 Z M 458.167969 566.070312 "/></clipPath><clipPath id="563b2b12b6"><path d="M 231 342 L 348 342 L 348 467 L 231 467 Z M 231 342 "/></clipPath><clipPath id="6cd3048f96"><path d="M 262.183594 325.066406 L 371.734375 384.523438 L 317.375 484.683594 L 207.824219 425.230469 Z M 262.183594 325.066406 "/></clipPath><clipPath id="7e6ff42afe"><path d="M 335.21875 444.289062 L 304.53125 462.960938 C 296.597656 467.789062 286.695312 468.035156 278.535156 463.605469 L 246.625 446.285156 C 238.460938 441.855469 233.269531 433.421875 232.996094 424.136719 L 231.929688 388.230469 C 231.652344 378.960938 236.375 370.257812 244.296875 365.441406 L 274.984375 346.765625 C 282.917969 341.9375 292.820312 341.695312 300.984375 346.125 L 332.894531 363.441406 C 341.054688 367.871094 346.246094 376.308594 346.523438 385.589844 L 347.589844 421.496094 C 347.863281 430.765625 343.140625 439.46875 335.21875 444.289062 Z M 335.21875 444.289062 "/></clipPath><clipPath id="9b1efd8fff"><path d="M 231 342 L 348 342 L 348 467 L 231 467 Z M 231 342 "/></clipPath><clipPath id="a7f655d43f"><path d="M 258.660156 323.15625 L 375.335938 386.476562 L 320.960938 486.671875 L 204.285156 423.351562 Z M 258.660156 323.15625 "/></clipPath><clipPath id="5892799108"><path d="M 260.488281 324.144531 L 373.386719 385.417969 L 319.035156 485.574219 L 206.132812 424.300781 Z M 260.488281 324.144531 "/></clipPath><clipPath id="f8952d33a7"><path d="M 335.21875 444.28125 L 304.53125 462.953125 C 296.597656 467.78125 286.699219 468.023438 278.535156 463.59375 L 246.628906 446.277344 C 238.46875 441.847656 233.277344 433.414062 233 424.132812 L 231.933594 388.226562 C 231.660156 378.960938 236.382812 370.257812 244.300781 365.4375 L 274.988281 346.765625 C 282.921875 341.941406 292.824219 341.695312 300.984375 346.125 L 332.890625 363.441406 C 341.050781 367.871094 346.242188 376.304688 346.519531 385.585938 L 347.585938 421.492188 C 347.863281 430.757812 343.140625 439.460938 335.21875 444.28125 Z M 335.21875 444.28125 "/></clipPath></defs><g id="01a94b0002"><g clip-rule="nonzero" clip-path="url(#b6873d1a6f)"><g clip-rule="nonzero" clip-path="url(#40ea0a4364)"><g clip-rule="nonzero" clip-path="url(#2a0ac31a5f)"><path style=" stroke:none;fill-rule:nonzero;fill:#ffbd59;fill-opacity:1;" d="M 276.109375 66.335938 L 759.375 328.609375 L 534.066406 743.761719 L 50.800781 481.488281 Z M 276.109375 66.335938 "/></g></g></g><g clip-rule="nonzero" clip-path="url(#26cf9b6fba)"><g clip-rule="nonzero" clip-path="url(#33d86758e9)"><g clip-rule="nonzero" clip-path="url(#febcc4a8e6)"><g clip-rule="nonzero" clip-path="url(#7eaf15aa07)"><path style="fill:none;stroke-width:2;stroke-linecap:butt;stroke-linejoin:miter;stroke:#000000;stroke-opacity:1;stroke-miterlimit:4;" d="M 703.183799 365.894782 L 579.310216 578.799055 C 560.943434 610.372788 527.171416 629.797501 490.642239 629.794139 L 242.212601 629.798895 C 205.683424 629.795533 171.913854 610.374531 153.546523 578.80199 L 29.668442 365.896011 C 11.328439 334.373824 11.329852 295.427931 29.670342 263.904022 L 153.54144 50.995172 C 171.915284 19.423532 205.687303 -0.00118064 242.213995 -0.00239628 L 490.64154 -0.0000902352 C 527.168233 -0.00130588 560.940287 19.424274 579.312195 50.99433 L 703.185699 263.902793 C 721.525702 295.424981 721.524289 334.370874 703.183799 365.894782 Z M 703.183799 365.894782 " transform="matrix(0.659181,0.357744,-0.357744,0.659181,276.109794,66.335335)"/></g></g></g></g><g clip-rule="nonzero" clip-path="url(#2354fa05cf)"><g clip-rule="nonzero" clip-path="url(#06286c11c2)"><g clip-rule="nonzero" clip-path="url(#4b2e8d70e0)"><path style=" stroke:none;fill-rule:nonzero;fill:#ffde59;fill-opacity:1;" d="M 293.785156 112.78125 L 710.773438 339.085938 L 516.363281 697.304688 L 99.375 471 Z M 293.785156 112.78125 "/></g></g></g><g clip-rule="nonzero" clip-path="url(#a38c156c34)"><g clip-rule="nonzero" clip-path="url(#63f74d35fa)"><g clip-rule="nonzero" clip-path="url(#1418f6ca6f)"><g clip-rule="nonzero" clip-path="url(#083cf652b9)"><path style="fill:none;stroke-width:2;stroke-linecap:butt;stroke-linejoin:miter;stroke:#000000;stroke-opacity:1;stroke-miterlimit:4;" d="M 602.674311 322.704582 L 503.928133 492.426603 C 485.555458 523.996598 451.784686 543.421485 415.25749 543.419431 L 217.08369 543.420356 C 180.556494 543.418302 146.786861 523.997656 128.417691 492.423488 L 29.668961 322.707573 C 11.327141 291.183799 11.327244 252.238009 29.671119 220.713296 L 128.415202 50.998342 C 146.785391 19.423765 180.556164 -0.00112155 217.083359 0.000932174 L 415.25716 0.00000772837 C 451.788936 -0.000424814 485.55857 19.420221 503.927739 50.994389 L 602.671889 220.71279 C 621.013709 252.236565 621.013606 291.182355 602.674311 322.704582 Z M 602.674311 322.704582 " transform="matrix(0.658669,0.357466,-0.357466,0.658669,293.783806,112.782216)"/></g></g></g></g><g clip-rule="nonzero" clip-path="url(#df0ce881c6)"><g clip-rule="nonzero" clip-path="url(#a40fcc0897)"><g clip-rule="nonzero" clip-path="url(#0356a8493b)"><path style=" stroke:none;fill-rule:nonzero;fill:#fff48e;fill-opacity:1;" d="M 367.949219 205.046875 L 484.542969 268.324219 L 430.183594 368.488281 L 313.589844 305.210938 Z M 367.949219 205.046875 "/></g></g></g><g clip-rule="nonzero" clip-path="url(#d907de0052)"><g clip-rule="nonzero" clip-path="url(#b619b0a2f5)"><g clip-rule="nonzero" clip-path="url(#deca3a0879)"><g clip-rule="nonzero" clip-path="url(#0c43701c51)"><path style="fill:none;stroke-width:2;stroke-linecap:butt;stroke-linejoin:miter;stroke:#000000;stroke-opacity:1;stroke-miterlimit:4;" d="M 166.74439 93.251651 L 142.657535 134.649715 C 136.430977 145.353365 124.983162 151.939543 112.60323 151.938268 L 64.199983 151.93761 C 51.815473 151.93882 40.372685 145.354882 34.142411 134.65021 L 10.059203 93.255308 C 3.838866 82.568947 3.840626 69.370974 10.05842 58.683933 L 34.145275 17.285869 C 40.367256 6.584703 51.81507 -0.00147415 64.19958 -0.00268351 L 112.602827 -0.00202619 C 124.98276 -0.000751219 136.432609 6.58528 142.655821 17.287859 L 166.743607 58.680276 C 172.959366 69.369122 172.960091 82.571672 166.74439 93.251651 Z M 166.74439 93.251651 " transform="matrix(0.659181,0.357744,-0.357744,0.659181,367.953355,205.050377)"/></g></g></g></g><g clip-rule="nonzero" clip-path="url(#1afc1a54ba)"><g clip-rule="nonzero" clip-path="url(#7295c0750c)"><g clip-rule="nonzero" clip-path="url(#29661b40f2)"><path style=" stroke:none;fill-rule:nonzero;fill:#fff48e;fill-opacity:1;" d="M 489.28125 310.960938 L 605.878906 374.238281 L 551.519531 474.398438 L 434.921875 411.121094 Z M 489.28125 310.960938 "/></g></g></g><g clip-rule="nonzero" clip-path="url(#74cb88c1ba)"><g clip-rule="nonzero" clip-path="url(#4798d77887)"><g clip-rule="nonzero" clip-path="url(#86db8aed16)"><g clip-rule="nonzero" clip-path="url(#cae21b8404)"><path style="fill:none;stroke-width:2;stroke-linecap:butt;stroke-linejoin:miter;stroke:#000000;stroke-opacity:1;stroke-miterlimit:4;" d="M 166.744157 93.25572 L 142.657302 134.653783 C 136.428259 145.352855 124.985022 151.936549 112.600512 151.937758 L 64.197265 151.937101 C 51.817333 151.935826 40.369967 145.354372 34.142178 134.654278 L 10.056485 93.254798 C 3.840726 82.565953 3.842486 69.36798 10.055703 58.683423 L 34.142558 17.285359 C 40.369116 6.58171 51.819415 0.00010966 64.199347 0.00138463 L 112.602594 0.00204195 C 124.980042 -0.00126072 136.429892 6.584771 142.657682 17.284865 L 166.743374 58.684344 C 172.961227 69.366128 172.961951 82.568678 166.744157 93.25572 Z M 166.744157 93.25572 " transform="matrix(0.659181,0.357744,-0.357744,0.659181,489.286995,310.961841)"/></g></g></g></g><g clip-rule="nonzero" clip-path="url(#db84064b98)"><g clip-rule="nonzero" clip-path="url(#d601a3f7a7)"><g clip-rule="nonzero" clip-path="url(#2560080739)"><path style=" stroke:none;fill-rule:nonzero;fill:#fff48e;fill-opacity:1;" d="M 381.609375 444.945312 L 498.203125 508.222656 L 443.84375 608.386719 L 327.25 545.109375 Z M 381.609375 444.945312 "/></g></g></g><g clip-rule="nonzero" clip-path="url(#fd998f0dbf)"><g clip-rule="nonzero" clip-path="url(#fcd3c09524)"><g clip-rule="nonzero" clip-path="url(#ad2df15d31)"><g clip-rule="nonzero" clip-path="url(#6b9d2aeaa1)"><path style="fill:none;stroke-width:2;stroke-linecap:butt;stroke-linejoin:miter;stroke:#000000;stroke-opacity:1;stroke-miterlimit:4;" d="M 166.744791 93.252418 L 142.657936 134.650482 C 136.431378 145.354131 124.981079 151.935731 112.603631 151.939034 L 64.200384 151.938377 C 51.815874 151.939586 40.370602 145.35107 34.142812 134.650976 L 10.05712 93.251496 C 3.839267 82.569713 3.838543 69.367163 10.058822 58.684699 L 34.145677 17.286635 C 40.367657 6.58547 51.815472 -0.000707851 64.199982 -0.00191721 L 112.603229 -0.0012599 C 124.983161 0.0000150766 136.430527 6.581469 142.656223 17.288625 L 166.744009 58.681043 C 172.959768 69.369888 172.958008 82.567861 166.744791 93.252418 Z M 166.744791 93.252418 " transform="matrix(0.659181,0.357744,-0.357744,0.659181,381.61352,444.948166)"/></g></g></g></g><g clip-rule="nonzero" clip-path="url(#563b2b12b6)"><g clip-rule="nonzero" clip-path="url(#6cd3048f96)"><g clip-rule="nonzero" clip-path="url(#7e6ff42afe)"><path style=" stroke:none;fill-rule:nonzero;fill:#fff48e;fill-opacity:1;" d="M 258.660156 323.15625 L 375.257812 386.433594 L 320.898438 486.59375 L 204.304688 423.316406 Z M 258.660156 323.15625 "/></g></g></g><g clip-rule="nonzero" clip-path="url(#9b1efd8fff)"><g clip-rule="nonzero" clip-path="url(#a7f655d43f)"><g clip-rule="nonzero" clip-path="url(#5892799108)"><g clip-rule="nonzero" clip-path="url(#f8952d33a7)"><path style="fill:none;stroke-width:2;stroke-linecap:butt;stroke-linejoin:miter;stroke:#000000;stroke-opacity:1;stroke-miterlimit:4;" d="M 166.74358 93.255088 L 142.656725 134.653151 C 136.430167 145.356801 124.984446 151.935917 112.599935 151.937126 L 64.196689 151.936469 C 51.816756 151.935194 40.369391 145.35374 34.141601 134.653646 L 10.055908 93.254166 C 3.842634 82.569898 3.841909 69.367348 10.055126 58.682791 L 34.141981 17.284727 C 40.371023 6.585655 51.818838 -0.000522247 64.19877 0.000752725 L 112.602017 0.00141004 C 124.98195 0.00268501 136.429315 6.584139 142.657105 17.284233 L 166.742797 58.683712 C 172.96065 69.365496 172.961374 82.568046 166.74358 93.255088 Z M 166.74358 93.255088 " transform="matrix(0.659181,0.357744,-0.357744,0.659181,258.666055,323.157777)"/></g></g></g></g></g></svg>