<svg xmlns="http://www.w3.org/2000/svg" xmlns:xlink="http://www.w3.org/1999/xlink" width="1080" zoomAndPan="magnify" viewBox="0 0 810 809.999993" height="1080" preserveAspectRatio="xMidYMid meet" version="1.2"><defs><clipPath id="cb652130c4"><path d="M 171 63 L 622 63 L 622 729 L 171 729 Z M 171 63 "/></clipPath><clipPath id="6ec178e509"><path d="M 405.597656 63.039062 L 729.003906 417.734375 L 387.613281 729.015625 L 64.207031 374.320312 Z M 405.597656 63.039062 "/></clipPath><clipPath id="79dc109d98"><path d="M 405.597656 63.039062 L 729.003906 417.734375 L 387.613281 729.015625 L 64.207031 374.320312 Z M 405.597656 63.039062 "/></clipPath><clipPath id="d5b94ca939"><path d="M 405.597656 63.039062 L 729.003906 417.734375 L 387.613281 729.015625 L 64.207031 374.320312 Z M 405.597656 63.039062 "/></clipPath></defs><g id="f0b6a3ba06"><g clip-rule="nonzero" clip-path="url(#cb652130c4)"><g clip-rule="nonzero" clip-path="url(#6ec178e509)"><g clip-rule="nonzero" clip-path="url(#79dc109d98)"><g clip-rule="nonzero" clip-path="url(#d5b94ca939)"><path style=" stroke:none;fill-rule:nonzero;fill:#6ac59c;fill-opacity:1;" d="M 405.59375 63.039062 L 553.976562 225.773438 C 650.5625 331.703125 642.976562 496.117188 537.050781 592.699219 L 387.597656 728.972656 L 239.214844 566.234375 C 142.628906 460.308594 150.214844 295.894531 256.140625 199.308594 Z M 405.59375 63.039062 "/></g></g></g></g></g></svg>