<svg xmlns="http://www.w3.org/2000/svg" xmlns:xlink="http://www.w3.org/1999/xlink" width="1080" zoomAndPan="magnify" viewBox="0 0 810 809.999993" height="1080" preserveAspectRatio="xMidYMid meet" version="1.2"><defs><clipPath id="af4f3d8d39"><path d="M 56.402344 230 L 753.902344 230 L 753.902344 578.234375 L 56.402344 578.234375 Z M 56.402344 230 "/></clipPath><clipPath id="11778f74e3"><path d="M 100.394531 274 L 709 274 L 709 578.917969 L 100.394531 578.917969 Z M 100.394531 274 "/></clipPath><clipPath id="a71f3de463"><path d="M 100.398438 272.597656 L 709.398438 272.597656 L 709.398438 578.597656 L 100.398438 578.597656 Z M 100.398438 272.597656 "/></clipPath><clipPath id="4ab1033b41"><path d="M 56.40625 228.347656 L 753.90625 228.347656 L 753.90625 578.597656 L 56.40625 578.597656 Z M 56.40625 228.347656 "/></clipPath></defs><g id="883c24ebef"><g clip-rule="nonzero" clip-path="url(#af4f3d8d39)"><path style=" stroke:none;fill-rule:nonzero;fill:#ffde59;fill-opacity:1;" d="M 752.921875 566.164062 C 752.773438 561.996094 752.550781 557.832031 752.25 553.671875 C 751.949219 549.511719 751.574219 545.359375 751.125 541.210938 C 750.675781 537.066406 750.152344 532.929688 749.554688 528.800781 C 748.957031 524.671875 748.285156 520.558594 747.539062 516.453125 C 746.789062 512.347656 745.96875 508.261719 745.078125 504.1875 C 744.183594 500.113281 743.214844 496.054688 742.175781 492.015625 C 741.132812 487.976562 740.023438 483.957031 738.835938 479.957031 C 737.652344 475.957031 736.394531 471.980469 735.066406 468.027344 C 733.738281 464.070312 732.339844 460.144531 730.867188 456.238281 C 729.398438 452.335938 727.859375 448.457031 726.25 444.609375 C 724.636719 440.761719 722.960938 436.941406 721.210938 433.152344 C 719.464844 429.367188 717.648438 425.609375 715.765625 421.886719 C 713.882812 418.164062 711.933594 414.476562 709.917969 410.824219 C 707.902344 407.167969 705.820312 403.554688 703.675781 399.976562 C 701.53125 396.398438 699.320312 392.859375 697.046875 389.359375 C 694.773438 385.859375 692.4375 382.402344 690.039062 378.988281 C 687.640625 375.574219 685.183594 372.203125 682.660156 368.875 C 680.140625 365.550781 677.5625 362.269531 674.925781 359.035156 C 672.289062 355.800781 669.59375 352.617188 666.839844 349.480469 C 664.085938 346.34375 661.277344 343.257812 658.414062 340.21875 C 655.550781 337.183594 652.632812 334.199219 649.660156 331.269531 C 646.691406 328.339844 643.667969 325.460938 640.589844 322.640625 C 637.515625 319.816406 634.390625 317.050781 631.214844 314.339844 C 628.042969 311.628906 624.820312 308.976562 621.546875 306.382812 C 618.277344 303.789062 614.960938 301.253906 611.601562 298.777344 C 608.238281 296.300781 604.832031 293.886719 601.382812 291.535156 C 597.933594 289.183594 594.445312 286.894531 590.914062 284.664062 C 587.382812 282.4375 583.8125 280.273438 580.203125 278.175781 C 576.59375 276.078125 572.949219 274.042969 569.265625 272.074219 C 565.582031 270.105469 561.863281 268.207031 558.113281 266.371094 C 554.363281 264.535156 550.578125 262.769531 546.765625 261.070312 C 542.949219 259.371094 539.105469 257.742188 535.230469 256.183594 C 531.359375 254.621094 527.457031 253.132812 523.53125 251.710938 C 519.605469 250.292969 515.652344 248.941406 511.675781 247.664062 C 507.699219 246.386719 503.703125 245.179688 499.683594 244.046875 C 495.664062 242.910156 491.625 241.847656 487.566406 240.859375 C 483.511719 239.871094 479.4375 238.953125 475.34375 238.109375 C 471.253906 237.269531 467.148438 236.5 463.03125 235.804688 C 458.914062 235.109375 454.785156 234.484375 450.644531 233.9375 C 446.503906 233.390625 442.351562 232.917969 438.195312 232.523438 C 434.035156 232.125 429.875 231.800781 425.703125 231.550781 C 421.535156 231.304688 417.363281 231.128906 413.1875 231.03125 C 409.011719 230.933594 404.835938 230.910156 400.65625 230.960938 C 396.480469 231.015625 392.308594 231.140625 388.136719 231.34375 C 383.960938 231.542969 379.796875 231.820312 375.632812 232.171875 C 371.472656 232.523438 367.316406 232.949219 363.171875 233.453125 C 359.023438 233.953125 354.886719 234.527344 350.761719 235.175781 C 346.636719 235.828125 342.523438 236.550781 338.421875 237.347656 C 334.324219 238.144531 330.238281 239.015625 326.171875 239.960938 C 322.101562 240.902344 318.050781 241.921875 314.019531 243.007812 C 309.988281 244.097656 305.976562 245.261719 301.988281 246.496094 C 297.996094 247.730469 294.03125 249.035156 290.089844 250.410156 C 286.144531 251.785156 282.230469 253.234375 278.335938 254.75 C 274.445312 256.265625 270.585938 257.855469 266.75 259.507812 C 262.917969 261.164062 259.113281 262.890625 255.34375 264.683594 C 251.574219 266.476562 247.835938 268.335938 244.128906 270.261719 C 240.425781 272.1875 236.757812 274.179688 233.125 276.238281 C 229.492188 278.296875 225.898438 280.421875 222.339844 282.609375 C 218.785156 284.796875 215.269531 287.050781 211.792969 289.363281 C 208.320312 291.675781 204.886719 294.054688 201.5 296.492188 C 198.109375 298.929688 194.765625 301.425781 191.464844 303.984375 C 188.167969 306.542969 184.914062 309.15625 181.710938 311.832031 C 178.503906 314.507812 175.347656 317.238281 172.242188 320.027344 C 169.136719 322.816406 166.078125 325.65625 163.074219 328.554688 C 159.070312 332.410156 155.160156 336.359375 151.34375 340.402344 C 147.53125 344.441406 143.816406 348.574219 140.199219 352.796875 C 136.585938 357.019531 133.074219 361.324219 129.667969 365.714844 C 126.261719 370.105469 122.960938 374.574219 119.769531 379.125 C 116.578125 383.675781 113.5 388.296875 110.53125 392.996094 C 107.566406 397.695312 104.710938 402.460938 101.976562 407.296875 C 99.238281 412.132812 96.617188 417.03125 94.117188 421.992188 C 91.617188 426.953125 89.238281 431.972656 86.980469 437.046875 C 84.722656 442.125 82.589844 447.253906 80.578125 452.433594 C 78.566406 457.609375 76.683594 462.835938 74.925781 468.105469 C 73.167969 473.375 71.539062 478.683594 70.039062 484.03125 C 68.535156 489.382812 67.164062 494.761719 65.921875 500.175781 C 64.683594 505.589844 63.574219 511.03125 62.59375 516.5 C 61.617188 521.96875 60.769531 527.457031 60.058594 532.964844 C 59.34375 538.472656 58.765625 543.996094 58.320312 549.53125 C 57.871094 555.070312 57.558594 560.613281 57.382812 566.164062 L 56.984375 578.234375 L 753.320312 578.234375 Z M 752.921875 566.164062 "/></g><g clip-rule="nonzero" clip-path="url(#11778f74e3)"><path style=" stroke:none;fill-rule:nonzero;fill:#fff6e9;fill-opacity:1;" d="M 708.542969 567.941406 C 708.410156 564.296875 708.214844 560.652344 707.953125 557.015625 C 707.691406 553.378906 707.363281 549.746094 706.972656 546.121094 C 706.582031 542.496094 706.125 538.878906 705.601562 535.269531 C 705.078125 531.660156 704.492188 528.0625 703.839844 524.472656 C 703.1875 520.882812 702.472656 517.308594 701.691406 513.746094 C 700.910156 510.183594 700.066406 506.636719 699.15625 503.105469 C 698.25 499.574219 697.277344 496.058594 696.242188 492.5625 C 695.207031 489.066406 694.109375 485.585938 692.949219 482.128906 C 691.789062 478.671875 690.566406 475.238281 689.285156 471.824219 C 688 468.410156 686.65625 465.019531 685.25 461.65625 C 683.84375 458.289062 682.378906 454.953125 680.855469 451.640625 C 679.328125 448.328125 677.742188 445.042969 676.097656 441.789062 C 674.457031 438.53125 672.753906 435.308594 670.992188 432.113281 C 669.234375 428.917969 667.417969 425.757812 665.542969 422.628906 C 663.667969 419.5 661.738281 416.40625 659.753906 413.347656 C 657.769531 410.289062 655.730469 407.265625 653.636719 404.277344 C 651.542969 401.292969 649.394531 398.34375 647.195312 395.4375 C 644.996094 392.527344 642.742188 389.660156 640.441406 386.832031 C 638.136719 384.003906 635.785156 381.21875 633.378906 378.476562 C 630.976562 375.734375 628.523438 373.035156 626.023438 370.378906 C 623.523438 367.726562 620.976562 365.117188 618.382812 362.554688 C 615.785156 359.992188 613.148438 357.476562 610.460938 355.007812 C 607.777344 352.539062 605.046875 350.121094 602.277344 347.75 C 599.503906 345.382812 596.691406 343.0625 593.835938 340.792969 C 590.980469 338.523438 588.085938 336.308594 585.148438 334.144531 C 582.214844 331.980469 579.242188 329.871094 576.230469 327.8125 C 573.21875 325.753906 570.171875 323.753906 567.085938 321.804688 C 564.003906 319.855469 560.886719 317.964844 557.734375 316.128906 C 554.582031 314.296875 551.398438 312.515625 548.183594 310.796875 C 544.96875 309.074219 541.722656 307.414062 538.449219 305.808594 C 535.171875 304.203125 531.871094 302.660156 528.539062 301.175781 C 525.207031 299.691406 521.851562 298.265625 518.46875 296.902344 C 515.089844 295.535156 511.683594 294.234375 508.253906 292.992188 C 504.824219 291.75 501.375 290.570312 497.902344 289.453125 C 494.429688 288.335938 490.941406 287.28125 487.433594 286.289062 C 483.921875 285.296875 480.394531 284.367188 476.851562 283.503906 C 473.308594 282.636719 469.753906 281.835938 466.179688 281.097656 C 462.609375 280.363281 459.027344 279.6875 455.429688 279.082031 C 451.835938 278.472656 448.230469 277.929688 444.613281 277.453125 C 440.996094 276.972656 437.375 276.558594 433.746094 276.210938 C 430.113281 275.863281 426.480469 275.582031 422.839844 275.363281 C 419.199219 275.148438 415.554688 274.996094 411.910156 274.910156 C 408.261719 274.824219 404.617188 274.804688 400.96875 274.847656 C 397.324219 274.894531 393.679688 275.003906 390.035156 275.179688 C 386.394531 275.359375 382.753906 275.601562 379.121094 275.90625 C 375.488281 276.214844 371.859375 276.585938 368.238281 277.023438 C 364.617188 277.464844 361.007812 277.964844 357.40625 278.535156 C 353.800781 279.101562 350.210938 279.734375 346.632812 280.429688 C 343.050781 281.128906 339.484375 281.890625 335.933594 282.714844 C 332.382812 283.539062 328.84375 284.429688 325.324219 285.382812 C 321.804688 286.335938 318.304688 287.351562 314.820312 288.429688 C 311.335938 289.507812 307.871094 290.648438 304.429688 291.851562 C 300.988281 293.054688 297.566406 294.320312 294.171875 295.648438 C 290.773438 296.972656 287.402344 298.363281 284.054688 299.808594 C 280.707031 301.257812 277.386719 302.765625 274.09375 304.332031 C 270.800781 305.898438 267.535156 307.527344 264.300781 309.210938 C 261.066406 310.894531 257.863281 312.636719 254.691406 314.4375 C 251.519531 316.238281 248.382812 318.09375 245.277344 320.007812 C 242.171875 321.921875 239.105469 323.890625 236.070312 325.914062 C 233.035156 327.9375 230.039062 330.011719 227.078125 332.144531 C 224.121094 334.277344 221.199219 336.460938 218.320312 338.695312 C 215.4375 340.933594 212.597656 343.21875 209.800781 345.558594 C 207.003906 347.898438 204.246094 350.285156 201.535156 352.722656 C 198.824219 355.160156 196.15625 357.648438 193.53125 360.179688 C 186.535156 366.925781 179.875 373.992188 173.558594 381.375 C 167.242188 388.761719 161.296875 396.4375 155.722656 404.398438 C 150.144531 412.359375 144.964844 420.570312 140.183594 429.03125 C 135.402344 437.492188 131.035156 446.164062 127.089844 455.042969 C 123.144531 463.925781 119.636719 472.976562 116.566406 482.199219 C 113.496094 491.421875 110.875 500.765625 108.707031 510.242188 C 106.539062 519.714844 104.832031 529.273438 103.585938 538.910156 C 102.339844 548.550781 101.558594 558.226562 101.246094 567.941406 L 100.902344 578.492188 L 708.890625 578.492188 Z M 708.542969 567.941406 "/></g><path style="fill:none;stroke-width:2;stroke-linecap:butt;stroke-linejoin:miter;stroke:#000000;stroke-opacity:1;stroke-miterlimit:4;" d="M -0.00188111 1.00237 L 362.89397 1.00237 " transform="matrix(0,0.75,-0.75,0,405.747871,306.435005)"/><path style="fill:none;stroke-width:2;stroke-linecap:butt;stroke-linejoin:miter;stroke:#000000;stroke-opacity:1;stroke-miterlimit:4;" d="M 0.00165238 1.002062 L 288.801982 1.000398 " transform="matrix(-0.58598,0.46811,-0.46811,-0.58598,574.696607,444.000478)"/><path style="fill:none;stroke-width:2;stroke-linecap:butt;stroke-linejoin:miter;stroke:#000000;stroke-opacity:1;stroke-miterlimit:4;" d="M 0.000344173 0.999263 L 301.742605 0.997915 " transform="matrix(0.601466,0.448039,-0.448039,0.601466,223.95922,442.812886)"/><path style="fill:none;stroke-width:2;stroke-linecap:butt;stroke-linejoin:miter;stroke:#000000;stroke-opacity:1;stroke-miterlimit:4;" d="M -0.000387252 0.997789 L 269.832445 1.001943 " transform="matrix(-0.33932,0.668851,-0.668851,-0.33932,497.225834,398.467735)"/><path style="fill:none;stroke-width:2;stroke-linecap:butt;stroke-linejoin:miter;stroke:#000000;stroke-opacity:1;stroke-miterlimit:4;" d="M 0.0000383768 1.001808 L 272.754349 0.997976 " transform="matrix(0.353087,0.661687,-0.661687,0.353087,309.354276,397.775155)"/><g clip-rule="nonzero" clip-path="url(#a71f3de463)"><path style=" stroke:none;fill-rule:nonzero;fill:#000000;fill-opacity:1;" d="M 286.371094 296.53125 C 250.113281 311.871094 217.546875 333.832031 189.585938 361.800781 C 161.621094 389.769531 139.664062 422.34375 124.328125 458.609375 C 108.449219 496.160156 100.398438 536.046875 100.398438 577.160156 L 100.398438 578.597656 L 709.398438 578.597656 L 709.398438 577.160156 C 709.398438 536.046875 701.347656 496.160156 685.46875 458.609375 C 670.132812 422.34375 648.175781 389.769531 620.214844 361.800781 C 592.25 333.832031 559.683594 311.871094 523.425781 296.53125 C 485.882812 280.648438 446.003906 272.59375 404.898438 272.59375 C 363.792969 272.59375 323.914062 280.648438 286.371094 296.53125 Z M 522.304688 299.175781 C 558.222656 314.371094 590.480469 336.125 618.183594 363.832031 C 645.882812 391.539062 667.632812 423.804688 682.824219 459.730469 C 698.367188 496.484375 706.339844 535.503906 706.523438 575.726562 L 103.273438 575.726562 C 103.457031 535.503906 111.429688 496.484375 126.972656 459.730469 C 142.164062 423.804688 163.914062 391.539062 191.613281 363.832031 C 219.316406 336.125 251.574219 314.371094 287.492188 299.175781 C 324.675781 283.445312 364.179688 275.46875 404.898438 275.46875 C 445.621094 275.46875 485.121094 283.445312 522.304688 299.175781 Z M 522.304688 299.175781 "/></g><g clip-rule="nonzero" clip-path="url(#4ab1033b41)"><path style=" stroke:none;fill-rule:nonzero;fill:#000000;fill-opacity:1;" d="M 269.410156 255.742188 C 227.878906 273.300781 190.582031 298.4375 158.554688 330.453125 C 126.527344 362.46875 101.378906 399.75 83.816406 441.261719 C 65.628906 484.238281 56.40625 529.894531 56.40625 576.953125 L 56.40625 578.597656 L 753.910156 578.597656 L 753.910156 576.953125 C 753.910156 529.894531 744.6875 484.238281 726.503906 441.261719 C 708.9375 399.75 683.792969 362.46875 651.761719 330.453125 C 619.734375 298.4375 582.4375 273.300781 540.910156 255.742188 C 497.910156 237.566406 452.238281 228.347656 405.160156 228.347656 C 358.078125 228.347656 312.40625 237.566406 269.410156 255.742188 Z M 539.628906 258.773438 C 580.765625 276.164062 617.710938 301.0625 649.4375 332.777344 C 681.164062 364.492188 706.074219 401.421875 723.472656 442.539062 C 741.273438 484.609375 750.40625 529.273438 750.617188 575.308594 L 59.699219 575.308594 C 59.914062 529.273438 69.042969 484.609375 86.84375 442.539062 C 104.242188 401.421875 129.152344 364.492188 160.878906 332.777344 C 192.605469 301.0625 229.550781 276.164062 270.6875 258.773438 C 313.277344 240.765625 358.519531 231.636719 405.160156 231.636719 C 451.796875 231.636719 497.039062 240.765625 539.628906 258.773438 Z M 539.628906 258.773438 "/></g></g></svg>