<svg xmlns="http://www.w3.org/2000/svg" xmlns:xlink="http://www.w3.org/1999/xlink" width="1080" zoomAndPan="magnify" viewBox="0 0 810 809.999993" height="1080" preserveAspectRatio="xMidYMid meet" version="1.2"><defs><clipPath id="50786d4cfe"><path d="M 74.78125 124.523438 L 714.59375 124.523438 L 714.59375 695.921875 L 74.78125 695.921875 Z M 74.78125 124.523438 "/></clipPath><clipPath id="3c6da00f1e"><path d="M 431.90625 146.117188 L 708.867188 630.800781 C 716.566406 644.273438 716.511719 660.824219 708.722656 674.242188 C 700.9375 687.660156 686.59375 695.921875 671.078125 695.921875 L 118.3125 695.921875 C 102.796875 695.921875 88.457031 687.660156 80.667969 674.242188 C 72.882812 660.824219 72.824219 644.273438 80.523438 630.800781 L 357.484375 146.117188 C 365.117188 132.765625 379.316406 124.523438 394.695312 124.523438 C 410.074219 124.523438 424.277344 132.765625 431.90625 146.117188 Z M 431.90625 146.117188 "/></clipPath><linearGradient x1="146.285995" gradientTransform="matrix(2.402032,0,0,2.402032,43.303111,81.000019)" y1="18.119999" x2="146.285995" gradientUnits="userSpaceOnUse" y2="255.999996" id="b3692a4ebd"><stop style="stop-color:#ffb5b5;stop-opacity:1;" offset="0"/><stop style="stop-color:#ffb4b4;stop-opacity:1;" offset="0.00390625"/><stop style="stop-color:#ffb4b4;stop-opacity:1;" offset="0.0078125"/><stop style="stop-color:#ffb3b3;stop-opacity:1;" offset="0.0117188"/><stop style="stop-color:#ffb2b2;stop-opacity:1;" offset="0.015625"/><stop style="stop-color:#ffb2b2;stop-opacity:1;" offset="0.0195312"/><stop style="stop-color:#ffb1b1;stop-opacity:1;" offset="0.0234375"/><stop style="stop-color:#ffb0b0;stop-opacity:1;" offset="0.0273437"/><stop style="stop-color:#ffafaf;stop-opacity:1;" offset="0.03125"/><stop style="stop-color:#ffafaf;stop-opacity:1;" offset="0.0351562"/><stop style="stop-color:#ffaeae;stop-opacity:1;" offset="0.0390625"/><stop style="stop-color:#ffadad;stop-opacity:1;" offset="0.0429688"/><stop style="stop-color:#ffadad;stop-opacity:1;" offset="0.046875"/><stop style="stop-color:#ffacac;stop-opacity:1;" offset="0.0507812"/><stop style="stop-color:#ffabab;stop-opacity:1;" offset="0.0546875"/><stop style="stop-color:#ffaaaa;stop-opacity:1;" offset="0.0585938"/><stop style="stop-color:#ffaaaa;stop-opacity:1;" offset="0.0625"/><stop style="stop-color:#ffa9a9;stop-opacity:1;" offset="0.0664062"/><stop style="stop-color:#ffa8a8;stop-opacity:1;" offset="0.0703125"/><stop style="stop-color:#ffa8a8;stop-opacity:1;" offset="0.0742187"/><stop style="stop-color:#ffa7a7;stop-opacity:1;" offset="0.078125"/><stop style="stop-color:#ffa6a6;stop-opacity:1;" offset="0.0820312"/><stop style="stop-color:#ffa5a5;stop-opacity:1;" offset="0.0859375"/><stop style="stop-color:#ffa5a5;stop-opacity:1;" offset="0.0898437"/><stop style="stop-color:#ffa4a4;stop-opacity:1;" offset="0.09375"/><stop style="stop-color:#ffa3a3;stop-opacity:1;" offset="0.0976562"/><stop style="stop-color:#ffa3a3;stop-opacity:1;" offset="0.101562"/><stop style="stop-color:#ffa2a2;stop-opacity:1;" offset="0.105469"/><stop style="stop-color:#ffa1a1;stop-opacity:1;" offset="0.109375"/><stop style="stop-color:#ffa1a1;stop-opacity:1;" offset="0.113281"/><stop style="stop-color:#ffa0a0;stop-opacity:1;" offset="0.117187"/><stop style="stop-color:#ff9f9f;stop-opacity:1;" offset="0.121094"/><stop style="stop-color:#ff9e9e;stop-opacity:1;" offset="0.125"/><stop style="stop-color:#ff9e9e;stop-opacity:1;" offset="0.128906"/><stop style="stop-color:#ff9d9d;stop-opacity:1;" offset="0.132812"/><stop style="stop-color:#ff9c9c;stop-opacity:1;" offset="0.136719"/><stop style="stop-color:#ff9c9c;stop-opacity:1;" offset="0.140625"/><stop style="stop-color:#ff9b9b;stop-opacity:1;" offset="0.144531"/><stop style="stop-color:#ff9a9a;stop-opacity:1;" offset="0.148437"/><stop style="stop-color:#ff9999;stop-opacity:1;" offset="0.152344"/><stop style="stop-color:#ff9999;stop-opacity:1;" offset="0.15625"/><stop style="stop-color:#ff9898;stop-opacity:1;" offset="0.160156"/><stop style="stop-color:#ff9797;stop-opacity:1;" offset="0.164062"/><stop style="stop-color:#ff9797;stop-opacity:1;" offset="0.167969"/><stop style="stop-color:#ff9696;stop-opacity:1;" offset="0.171875"/><stop style="stop-color:#ff9595;stop-opacity:1;" offset="0.175781"/><stop style="stop-color:#ff9595;stop-opacity:1;" offset="0.179687"/><stop style="stop-color:#ff9494;stop-opacity:1;" offset="0.183594"/><stop style="stop-color:#ff9393;stop-opacity:1;" offset="0.1875"/><stop style="stop-color:#ff9292;stop-opacity:1;" offset="0.191406"/><stop style="stop-color:#ff9292;stop-opacity:1;" offset="0.195312"/><stop style="stop-color:#ff9191;stop-opacity:1;" offset="0.199219"/><stop style="stop-color:#ff9090;stop-opacity:1;" offset="0.203125"/><stop style="stop-color:#ff9090;stop-opacity:1;" offset="0.207031"/><stop style="stop-color:#ff8f8f;stop-opacity:1;" offset="0.210938"/><stop style="stop-color:#ff8e8e;stop-opacity:1;" offset="0.214844"/><stop style="stop-color:#ff8d8d;stop-opacity:1;" offset="0.21875"/><stop style="stop-color:#ff8d8d;stop-opacity:1;" offset="0.222656"/><stop style="stop-color:#ff8c8c;stop-opacity:1;" offset="0.226562"/><stop style="stop-color:#ff8b8b;stop-opacity:1;" offset="0.230469"/><stop style="stop-color:#ff8b8b;stop-opacity:1;" offset="0.234375"/><stop style="stop-color:#ff8a8a;stop-opacity:1;" offset="0.238281"/><stop style="stop-color:#ff8989;stop-opacity:1;" offset="0.242187"/><stop style="stop-color:#ff8888;stop-opacity:1;" offset="0.246094"/><stop style="stop-color:#ff8888;stop-opacity:1;" offset="0.25"/><stop style="stop-color:#ff8787;stop-opacity:1;" offset="0.253906"/><stop style="stop-color:#ff8686;stop-opacity:1;" offset="0.257812"/><stop style="stop-color:#ff8686;stop-opacity:1;" offset="0.261719"/><stop style="stop-color:#ff8585;stop-opacity:1;" offset="0.265625"/><stop style="stop-color:#ff8484;stop-opacity:1;" offset="0.269531"/><stop style="stop-color:#ff8484;stop-opacity:1;" offset="0.273437"/><stop style="stop-color:#ff8383;stop-opacity:1;" offset="0.277344"/><stop style="stop-color:#ff8282;stop-opacity:1;" offset="0.28125"/><stop style="stop-color:#ff8181;stop-opacity:1;" offset="0.285156"/><stop style="stop-color:#ff8181;stop-opacity:1;" offset="0.289063"/><stop style="stop-color:#ff8080;stop-opacity:1;" offset="0.292969"/><stop style="stop-color:#ff7f7f;stop-opacity:1;" offset="0.296875"/><stop style="stop-color:#ff7f7f;stop-opacity:1;" offset="0.300781"/><stop style="stop-color:#ff7e7e;stop-opacity:1;" offset="0.304688"/><stop style="stop-color:#ff7d7d;stop-opacity:1;" offset="0.308594"/><stop style="stop-color:#ff7c7c;stop-opacity:1;" offset="0.3125"/><stop style="stop-color:#ff7c7c;stop-opacity:1;" offset="0.316406"/><stop style="stop-color:#ff7b7b;stop-opacity:1;" offset="0.320312"/><stop style="stop-color:#ff7a7a;stop-opacity:1;" offset="0.324219"/><stop style="stop-color:#ff7a7a;stop-opacity:1;" offset="0.328125"/><stop style="stop-color:#ff7979;stop-opacity:1;" offset="0.332031"/><stop style="stop-color:#ff7878;stop-opacity:1;" offset="0.335938"/><stop style="stop-color:#ff7878;stop-opacity:1;" offset="0.339844"/><stop style="stop-color:#ff7777;stop-opacity:1;" offset="0.34375"/><stop style="stop-color:#ff7676;stop-opacity:1;" offset="0.347656"/><stop style="stop-color:#ff7575;stop-opacity:1;" offset="0.351562"/><stop style="stop-color:#ff7575;stop-opacity:1;" offset="0.355469"/><stop style="stop-color:#ff7474;stop-opacity:1;" offset="0.359375"/><stop style="stop-color:#ff7373;stop-opacity:1;" offset="0.363281"/><stop style="stop-color:#ff7373;stop-opacity:1;" offset="0.367187"/><stop style="stop-color:#ff7272;stop-opacity:1;" offset="0.371094"/><stop style="stop-color:#ff7171;stop-opacity:1;" offset="0.375"/><stop style="stop-color:#ff7070;stop-opacity:1;" offset="0.378906"/><stop style="stop-color:#ff7070;stop-opacity:1;" offset="0.382812"/><stop style="stop-color:#ff6f6f;stop-opacity:1;" offset="0.386719"/><stop style="stop-color:#ff6e6e;stop-opacity:1;" offset="0.390625"/><stop style="stop-color:#ff6e6e;stop-opacity:1;" offset="0.394531"/><stop style="stop-color:#ff6d6d;stop-opacity:1;" offset="0.398438"/><stop style="stop-color:#ff6c6c;stop-opacity:1;" offset="0.402344"/><stop style="stop-color:#ff6b6b;stop-opacity:1;" offset="0.40625"/><stop style="stop-color:#ff6b6b;stop-opacity:1;" offset="0.410156"/><stop style="stop-color:#ff6a6a;stop-opacity:1;" offset="0.414062"/><stop style="stop-color:#ff6969;stop-opacity:1;" offset="0.417969"/><stop style="stop-color:#ff6969;stop-opacity:1;" offset="0.421875"/><stop style="stop-color:#ff6868;stop-opacity:1;" offset="0.425781"/><stop style="stop-color:#ff6767;stop-opacity:1;" offset="0.429688"/><stop style="stop-color:#ff6767;stop-opacity:1;" offset="0.433594"/><stop style="stop-color:#ff6666;stop-opacity:1;" offset="0.4375"/><stop style="stop-color:#ff6565;stop-opacity:1;" offset="0.441406"/><stop style="stop-color:#ff6464;stop-opacity:1;" offset="0.445312"/><stop style="stop-color:#ff6464;stop-opacity:1;" offset="0.449219"/><stop style="stop-color:#ff6363;stop-opacity:1;" offset="0.453125"/><stop style="stop-color:#ff6262;stop-opacity:1;" offset="0.457031"/><stop style="stop-color:#ff6262;stop-opacity:1;" offset="0.460938"/><stop style="stop-color:#ff6161;stop-opacity:1;" offset="0.464844"/><stop style="stop-color:#ff6060;stop-opacity:1;" offset="0.46875"/><stop style="stop-color:#ff5f5f;stop-opacity:1;" offset="0.472656"/><stop style="stop-color:#ff5f5f;stop-opacity:1;" offset="0.476562"/><stop style="stop-color:#ff5e5e;stop-opacity:1;" offset="0.480469"/><stop style="stop-color:#ff5d5d;stop-opacity:1;" offset="0.484375"/><stop style="stop-color:#ff5d5d;stop-opacity:1;" offset="0.488281"/><stop style="stop-color:#ff5c5c;stop-opacity:1;" offset="0.492187"/><stop style="stop-color:#ff5b5b;stop-opacity:1;" offset="0.496094"/><stop style="stop-color:#ff5b5b;stop-opacity:1;" offset="0.5"/><stop style="stop-color:#ff5a5a;stop-opacity:1;" offset="0.503906"/><stop style="stop-color:#ff5959;stop-opacity:1;" offset="0.507812"/><stop style="stop-color:#ff5858;stop-opacity:1;" offset="0.511719"/><stop style="stop-color:#ff5858;stop-opacity:1;" offset="0.515625"/><stop style="stop-color:#ff5757;stop-opacity:1;" offset="0.519531"/><stop style="stop-color:#ff5656;stop-opacity:1;" offset="0.523438"/><stop style="stop-color:#ff5656;stop-opacity:1;" offset="0.527344"/><stop style="stop-color:#ff5555;stop-opacity:1;" offset="0.53125"/><stop style="stop-color:#ff5454;stop-opacity:1;" offset="0.535156"/><stop style="stop-color:#ff5353;stop-opacity:1;" offset="0.539062"/><stop style="stop-color:#ff5353;stop-opacity:1;" offset="0.542969"/><stop style="stop-color:#ff5252;stop-opacity:1;" offset="0.546875"/><stop style="stop-color:#ff5151;stop-opacity:1;" offset="0.550781"/><stop style="stop-color:#ff5151;stop-opacity:1;" offset="0.554688"/><stop style="stop-color:#ff5050;stop-opacity:1;" offset="0.558594"/><stop style="stop-color:#ff4f4f;stop-opacity:1;" offset="0.5625"/><stop style="stop-color:#ff4f4f;stop-opacity:1;" offset="0.566406"/><stop style="stop-color:#ff4e4e;stop-opacity:1;" offset="0.570312"/><stop style="stop-color:#ff4d4d;stop-opacity:1;" offset="0.574219"/><stop style="stop-color:#ff4c4c;stop-opacity:1;" offset="0.578125"/><stop style="stop-color:#ff4c4c;stop-opacity:1;" offset="0.582031"/><stop style="stop-color:#ff4b4b;stop-opacity:1;" offset="0.585938"/><stop style="stop-color:#ff4a4a;stop-opacity:1;" offset="0.589844"/><stop style="stop-color:#ff4a4a;stop-opacity:1;" offset="0.59375"/><stop style="stop-color:#ff4949;stop-opacity:1;" offset="0.597656"/><stop style="stop-color:#ff4848;stop-opacity:1;" offset="0.601562"/><stop style="stop-color:#ff4747;stop-opacity:1;" offset="0.605469"/><stop style="stop-color:#ff4747;stop-opacity:1;" offset="0.609375"/><stop style="stop-color:#ff4646;stop-opacity:1;" offset="0.613281"/><stop style="stop-color:#ff4545;stop-opacity:1;" offset="0.617188"/><stop style="stop-color:#ff4545;stop-opacity:1;" offset="0.621094"/><stop style="stop-color:#ff4444;stop-opacity:1;" offset="0.625"/><stop style="stop-color:#ff4343;stop-opacity:1;" offset="0.628906"/><stop style="stop-color:#ff4242;stop-opacity:1;" offset="0.632812"/><stop style="stop-color:#ff4242;stop-opacity:1;" offset="0.636719"/><stop style="stop-color:#ff4141;stop-opacity:1;" offset="0.640625"/><stop style="stop-color:#ff4040;stop-opacity:1;" offset="0.644531"/><stop style="stop-color:#ff4040;stop-opacity:1;" offset="0.648438"/><stop style="stop-color:#ff3f3f;stop-opacity:1;" offset="0.652344"/><stop style="stop-color:#ff3e3e;stop-opacity:1;" offset="0.65625"/><stop style="stop-color:#ff3e3e;stop-opacity:1;" offset="0.660156"/><stop style="stop-color:#ff3d3d;stop-opacity:1;" offset="0.664062"/><stop style="stop-color:#ff3c3c;stop-opacity:1;" offset="0.667969"/><stop style="stop-color:#ff3b3b;stop-opacity:1;" offset="0.671875"/><stop style="stop-color:#ff3b3b;stop-opacity:1;" offset="0.675781"/><stop style="stop-color:#ff3a3a;stop-opacity:1;" offset="0.679687"/><stop style="stop-color:#ff3939;stop-opacity:1;" offset="0.683594"/><stop style="stop-color:#ff3939;stop-opacity:1;" offset="0.6875"/><stop style="stop-color:#ff3838;stop-opacity:1;" offset="0.691406"/><stop style="stop-color:#ff3737;stop-opacity:1;" offset="0.695312"/><stop style="stop-color:#ff3636;stop-opacity:1;" offset="0.699219"/><stop style="stop-color:#ff3636;stop-opacity:1;" offset="0.703125"/><stop style="stop-color:#ff3535;stop-opacity:1;" offset="0.707031"/><stop style="stop-color:#ff3434;stop-opacity:1;" offset="0.710938"/><stop style="stop-color:#ff3434;stop-opacity:1;" offset="0.714844"/><stop style="stop-color:#ff3333;stop-opacity:1;" offset="0.71875"/><stop style="stop-color:#ff3232;stop-opacity:1;" offset="0.722656"/><stop style="stop-color:#ff3232;stop-opacity:1;" offset="0.726562"/><stop style="stop-color:#ff3131;stop-opacity:1;" offset="0.730469"/><stop style="stop-color:#ff3030;stop-opacity:1;" offset="0.734375"/><stop style="stop-color:#ff2f2f;stop-opacity:1;" offset="0.738281"/><stop style="stop-color:#ff2f2f;stop-opacity:1;" offset="0.742188"/><stop style="stop-color:#ff2e2e;stop-opacity:1;" offset="0.746094"/><stop style="stop-color:#ff2d2d;stop-opacity:1;" offset="0.75"/><stop style="stop-color:#ff2d2d;stop-opacity:1;" offset="0.753906"/><stop style="stop-color:#ff2c2c;stop-opacity:1;" offset="0.757812"/><stop style="stop-color:#ff2b2b;stop-opacity:1;" offset="0.761719"/><stop style="stop-color:#ff2a2a;stop-opacity:1;" offset="0.765625"/><stop style="stop-color:#ff2a2a;stop-opacity:1;" offset="0.769531"/><stop style="stop-color:#ff2929;stop-opacity:1;" offset="0.773438"/><stop style="stop-color:#ff2828;stop-opacity:1;" offset="0.777344"/><stop style="stop-color:#ff2828;stop-opacity:1;" offset="0.78125"/><stop style="stop-color:#ff2727;stop-opacity:1;" offset="0.785156"/><stop style="stop-color:#ff2626;stop-opacity:1;" offset="0.789062"/><stop style="stop-color:#ff2525;stop-opacity:1;" offset="0.792969"/><stop style="stop-color:#ff2525;stop-opacity:1;" offset="0.796875"/><stop style="stop-color:#ff2424;stop-opacity:1;" offset="0.800781"/><stop style="stop-color:#ff2323;stop-opacity:1;" offset="0.804688"/><stop style="stop-color:#ff2323;stop-opacity:1;" offset="0.808594"/><stop style="stop-color:#ff2222;stop-opacity:1;" offset="0.8125"/><stop style="stop-color:#ff2121;stop-opacity:1;" offset="0.816406"/><stop style="stop-color:#ff2121;stop-opacity:1;" offset="0.820312"/><stop style="stop-color:#ff2020;stop-opacity:1;" offset="0.824219"/><stop style="stop-color:#ff1f1f;stop-opacity:1;" offset="0.828125"/><stop style="stop-color:#ff1e1e;stop-opacity:1;" offset="0.832031"/><stop style="stop-color:#ff1e1e;stop-opacity:1;" offset="0.835938"/><stop style="stop-color:#ff1d1d;stop-opacity:1;" offset="0.839844"/><stop style="stop-color:#ff1c1c;stop-opacity:1;" offset="0.84375"/><stop style="stop-color:#ff1c1c;stop-opacity:1;" offset="0.847656"/><stop style="stop-color:#ff1b1b;stop-opacity:1;" offset="0.851562"/><stop style="stop-color:#ff1a1a;stop-opacity:1;" offset="0.855469"/><stop style="stop-color:#ff1919;stop-opacity:1;" offset="0.859375"/><stop style="stop-color:#ff1919;stop-opacity:1;" offset="0.863281"/><stop style="stop-color:#ff1818;stop-opacity:1;" offset="0.867188"/><stop style="stop-color:#ff1717;stop-opacity:1;" offset="0.871094"/><stop style="stop-color:#ff1717;stop-opacity:1;" offset="0.875"/><stop style="stop-color:#ff1616;stop-opacity:1;" offset="0.878906"/><stop style="stop-color:#ff1515;stop-opacity:1;" offset="0.882812"/><stop style="stop-color:#ff1515;stop-opacity:1;" offset="0.886719"/><stop style="stop-color:#ff1414;stop-opacity:1;" offset="0.890625"/><stop style="stop-color:#ff1313;stop-opacity:1;" offset="0.894531"/><stop style="stop-color:#ff1212;stop-opacity:1;" offset="0.898438"/><stop style="stop-color:#ff1212;stop-opacity:1;" offset="0.902344"/><stop style="stop-color:#ff1111;stop-opacity:1;" offset="0.90625"/><stop style="stop-color:#ff1010;stop-opacity:1;" offset="0.910156"/><stop style="stop-color:#ff1010;stop-opacity:1;" offset="0.914062"/><stop style="stop-color:#ff0f0f;stop-opacity:1;" offset="0.917969"/><stop style="stop-color:#ff0e0e;stop-opacity:1;" offset="0.921875"/><stop style="stop-color:#ff0d0d;stop-opacity:1;" offset="0.925781"/><stop style="stop-color:#ff0d0d;stop-opacity:1;" offset="0.929688"/><stop style="stop-color:#ff0c0c;stop-opacity:1;" offset="0.933594"/><stop style="stop-color:#ff0b0b;stop-opacity:1;" offset="0.9375"/><stop style="stop-color:#ff0b0b;stop-opacity:1;" offset="0.941406"/><stop style="stop-color:#ff0a0a;stop-opacity:1;" offset="0.945312"/><stop style="stop-color:#ff0909;stop-opacity:1;" offset="0.949219"/><stop style="stop-color:#ff0808;stop-opacity:1;" offset="0.953125"/><stop style="stop-color:#ff0808;stop-opacity:1;" offset="0.957031"/><stop style="stop-color:#ff0707;stop-opacity:1;" offset="0.960938"/><stop style="stop-color:#ff0606;stop-opacity:1;" offset="0.964844"/><stop style="stop-color:#ff0606;stop-opacity:1;" offset="0.96875"/><stop style="stop-color:#ff0505;stop-opacity:1;" offset="0.972656"/><stop style="stop-color:#ff0404;stop-opacity:1;" offset="0.976562"/><stop style="stop-color:#ff0404;stop-opacity:1;" offset="0.980469"/><stop style="stop-color:#ff0303;stop-opacity:1;" offset="0.984375"/><stop style="stop-color:#ff0202;stop-opacity:1;" offset="0.988281"/><stop style="stop-color:#ff0101;stop-opacity:1;" offset="0.992188"/><stop style="stop-color:#ff0101;stop-opacity:1;" offset="0.996094"/><stop style="stop-color:#ff0000;stop-opacity:1;" offset="1"/></linearGradient><clipPath id="97748b9df8"><path d="M 74 124 L 715 124 L 715 695.90625 L 74 695.90625 Z M 74 124 "/></clipPath><clipPath id="eac898b5ff"><path d="M 431.898438 146.117188 L 708.855469 630.789062 C 716.550781 644.261719 716.496094 660.808594 708.707031 674.230469 C 700.921875 687.648438 686.578125 695.90625 671.066406 695.90625 L 118.3125 695.90625 C 102.796875 695.90625 88.457031 687.648438 80.667969 674.230469 C 72.878906 660.808594 72.824219 644.261719 80.523438 630.789062 L 357.480469 146.117188 C 365.109375 132.765625 379.308594 124.523438 394.6875 124.523438 C 410.066406 124.523438 424.269531 132.765625 431.898438 146.117188 Z M 431.898438 146.117188 "/></clipPath><clipPath id="f8877f7aa1"><path d="M 74.054688 579.617188 L 717 579.617188 L 717 715.128906 L 74.054688 715.128906 Z M 74.054688 579.617188 "/></clipPath><clipPath id="5b4f509b58"><path d="M 141.808594 579.617188 L 649.214844 579.617188 C 686.636719 579.617188 716.972656 609.949219 716.972656 647.371094 C 716.972656 684.792969 686.636719 715.128906 649.214844 715.128906 L 141.808594 715.128906 C 104.390625 715.128906 74.054688 684.792969 74.054688 647.371094 C 74.054688 609.949219 104.390625 579.617188 141.808594 579.617188 Z M 141.808594 579.617188 "/></clipPath><clipPath id="90c329acd6"><path d="M 74.070312 579.617188 L 716.804688 579.617188 L 716.804688 715.367188 L 74.070312 715.367188 Z M 74.070312 579.617188 "/></clipPath><clipPath id="639316b4bd"><path d="M 141.804688 579.617188 L 649.054688 579.617188 C 686.460938 579.617188 716.789062 609.941406 716.789062 647.351562 C 716.789062 684.757812 686.460938 715.085938 649.054688 715.085938 L 141.804688 715.085938 C 104.394531 715.085938 74.070312 684.757812 74.070312 647.351562 C 74.070312 609.941406 104.394531 579.617188 141.804688 579.617188 Z M 141.804688 579.617188 "/></clipPath><clipPath id="f2bf0ecf2b"><path d="M 421 372 L 439 372 L 439 389 L 421 389 Z M 421 372 "/></clipPath><clipPath id="1903a6818d"><path d="M 416.769531 380.125 L 426.09375 366.570312 L 439.195312 375.582031 L 429.867188 389.140625 Z M 416.769531 380.125 "/></clipPath><clipPath id="2660988d3f"><path d="M 422.933594 372.664062 L 436.859375 374.25 C 437.488281 374.320312 438.035156 374.714844 438.296875 375.292969 C 438.558594 375.867188 438.5 376.539062 438.140625 377.058594 L 430.875 387.617188 C 430.519531 388.140625 429.914062 388.433594 429.28125 388.394531 C 428.648438 388.355469 428.085938 387.988281 427.792969 387.425781 L 421.335938 374.988281 C 421.0625 374.464844 421.105469 373.832031 421.4375 373.34375 C 421.773438 372.859375 422.347656 372.597656 422.933594 372.664062 Z M 422.933594 372.664062 "/></clipPath><clipPath id="a2e5620247"><path d="M 425 373 L 468 373 L 468 408 L 425 408 Z M 425 373 "/></clipPath><clipPath id="555976a4de"><path d="M 419.378906 386.601562 L 432.855469 367.011719 L 473.410156 394.914062 L 459.933594 414.503906 Z M 419.378906 386.601562 "/></clipPath><clipPath id="aaa4a5e8a9"><path d="M 426.117188 376.804688 C 422.394531 382.214844 428.445312 392.839844 439.632812 400.535156 C 450.816406 408.234375 462.902344 410.085938 466.625 404.675781 C 470.347656 399.269531 464.296875 388.644531 453.109375 380.945312 C 441.921875 373.25 429.839844 371.398438 426.117188 376.804688 Z M 426.117188 376.804688 "/></clipPath><clipPath id="cfd1bbc10e"><path d="M 331 315 L 349 315 L 349 333 L 331 333 Z M 331 315 "/></clipPath><clipPath id="17aa8660de"><path d="M 341.832031 310.25 L 354.078125 321.238281 L 343.457031 333.074219 L 331.210938 322.085938 Z M 341.832031 310.25 "/></clipPath><clipPath id="e7e483f975"><path d="M 348.441406 317.324219 L 345.082031 330.929688 C 344.929688 331.542969 344.46875 332.035156 343.863281 332.21875 C 343.257812 332.40625 342.601562 332.261719 342.128906 331.839844 L 332.589844 323.28125 C 332.121094 322.859375 331.90625 322.21875 332.023438 321.597656 C 332.144531 320.976562 332.582031 320.464844 333.175781 320.246094 L 346.339844 315.4375 C 346.894531 315.238281 347.515625 315.355469 347.957031 315.75 C 348.394531 316.144531 348.582031 316.75 348.441406 317.324219 Z M 348.441406 317.324219 "/></clipPath><clipPath id="57951db6ad"><path d="M 308 318 L 347 318 L 347 359 L 308 359 Z M 308 318 "/></clipPath><clipPath id="5ed5a2434d"><path d="M 335.074219 312.007812 L 352.773438 327.886719 L 319.898438 364.527344 L 302.199219 348.648438 Z M 335.074219 312.007812 "/></clipPath><clipPath id="a458429dd7"><path d="M 343.921875 319.945312 C 339.035156 315.5625 327.722656 320.199219 318.65625 330.304688 C 309.589844 340.414062 306.199219 352.160156 311.085938 356.546875 C 315.976562 360.929688 327.289062 356.292969 336.355469 346.183594 C 345.421875 336.078125 348.8125 324.332031 343.921875 319.945312 Z M 343.921875 319.945312 "/></clipPath><clipPath id="e47be35c60"><path d="M 410 236 L 427 236 L 427 255 L 410 255 Z M 410 236 "/></clipPath><clipPath id="06562e7079"><path d="M 406.226562 239.628906 L 421.777344 234.246094 L 426.980469 249.269531 L 411.433594 254.65625 Z M 406.226562 239.628906 "/></clipPath><clipPath id="4b21fde4bc"><path d="M 415.617188 237.277344 L 425.890625 246.8125 C 426.355469 247.242188 426.558594 247.882812 426.429688 248.503906 C 426.300781 249.121094 425.855469 249.625 425.257812 249.832031 L 413.144531 254.027344 C 412.546875 254.234375 411.886719 254.113281 411.402344 253.707031 C 410.914062 253.300781 410.679688 252.671875 410.777344 252.046875 L 412.953125 238.199219 C 413.046875 237.617188 413.449219 237.132812 414.007812 236.9375 C 414.566406 236.746094 415.1875 236.875 415.617188 237.277344 Z M 415.617188 237.277344 "/></clipPath><clipPath id="43250f07bb"><path d="M 409 242 L 438 242 L 438 290 L 409 290 Z M 409 242 "/></clipPath><clipPath id="333c7890bf"><path d="M 404.488281 246.390625 L 426.957031 238.609375 L 443.070312 285.125 L 420.601562 292.90625 Z M 404.488281 246.390625 "/></clipPath><clipPath id="5d7ec766e7"><path d="M 415.722656 242.5 C 409.519531 244.648438 408.09375 256.792969 412.535156 269.621094 C 416.980469 282.453125 425.613281 291.109375 431.816406 288.960938 C 438.019531 286.8125 439.449219 274.667969 435.003906 261.839844 C 430.5625 249.007812 421.929688 240.351562 415.722656 242.5 Z M 415.722656 242.5 "/></clipPath></defs><g id="bc8d1f73f2"><g clip-rule="nonzero" clip-path="url(#50786d4cfe)"><g clip-rule="nonzero" clip-path="url(#3c6da00f1e)"><path style=" stroke:none;fill-rule:nonzero;fill:url(#b3692a4ebd);" d="M 74.78125 124.523438 L 74.78125 695.921875 L 714.59375 695.921875 L 714.59375 124.523438 Z M 74.78125 124.523438 "/></g></g><g clip-rule="nonzero" clip-path="url(#97748b9df8)"><g clip-rule="nonzero" clip-path="url(#eac898b5ff)"><path style="fill:none;stroke-width:2;stroke-linecap:butt;stroke-linejoin:miter;stroke:#000000;stroke-opacity:1;stroke-miterlimit:4;" d="M 518.122149 86.823374 L 887.404377 733.063368 C 897.664966 751.027211 897.592048 773.09008 887.206458 790.986214 C 876.826075 808.877138 857.700755 819.887739 837.018117 819.887739 L 100.00056 819.887739 C 79.312713 819.887739 60.192601 808.877138 49.807011 790.986214 C 39.42142 773.09008 39.348502 751.027211 49.614299 733.063368 L 418.896528 86.823374 C 429.068573 69.020992 448.001182 58.031225 468.506734 58.031225 C 489.012286 58.031225 507.950103 69.020992 518.122149 86.823374 Z M 518.122149 86.823374 " transform="matrix(0.749987,0,0,0.749987,43.313337,81.000748)"/></g></g><g clip-rule="nonzero" clip-path="url(#f8877f7aa1)"><g clip-rule="nonzero" clip-path="url(#5b4f509b58)"><path style=" stroke:none;fill-rule:nonzero;fill:#38bd7d;fill-opacity:1;" d="M 74.054688 579.617188 L 717.207031 579.617188 L 717.207031 715.128906 L 74.054688 715.128906 Z M 74.054688 579.617188 "/></g></g><g clip-rule="nonzero" clip-path="url(#90c329acd6)"><g clip-rule="nonzero" clip-path="url(#639316b4bd)"><path style="fill:none;stroke-width:2;stroke-linecap:butt;stroke-linejoin:miter;stroke:#000000;stroke-opacity:1;stroke-miterlimit:4;" d="M 90.335156 0.00222545 L 766.841168 0.00222545 C 816.728901 0.00222545 857.176726 40.44484 857.176726 90.337784 C 857.176726 140.225517 816.728901 180.673342 766.841168 180.673342 L 90.335156 180.673342 C 40.442212 180.673342 -0.000402334 140.225517 -0.000402334 90.337784 C -0.000402334 40.44484 40.442212 0.00222545 90.335156 0.00222545 Z M 90.335156 0.00222545 " transform="matrix(0.749809,0,0,0.749809,74.070614,579.615519)"/></g></g><g clip-rule="nonzero" clip-path="url(#f2bf0ecf2b)"><g clip-rule="nonzero" clip-path="url(#1903a6818d)"><g clip-rule="nonzero" clip-path="url(#2660988d3f)"><path style=" stroke:none;fill-rule:nonzero;fill:#332e28;fill-opacity:1;" d="M 414.621094 380.074219 L 425.28125 364.582031 L 439.863281 374.617188 L 429.203125 390.109375 Z M 414.621094 380.074219 "/></g></g></g><g clip-rule="nonzero" clip-path="url(#a2e5620247)"><g clip-rule="nonzero" clip-path="url(#555976a4de)"><g clip-rule="nonzero" clip-path="url(#aaa4a5e8a9)"><path style=" stroke:none;fill-rule:nonzero;fill:#4e483e;fill-opacity:1;" d="M 419.378906 386.601562 L 432.855469 367.011719 L 473.335938 394.863281 L 459.855469 414.453125 Z M 419.378906 386.601562 "/></g></g></g><path style=" stroke:none;fill-rule:nonzero;fill:#332e28;fill-opacity:1;" d="M 421.652344 373.039062 L 423.492188 374.316406 L 423.066406 374.929688 L 421.226562 373.652344 M 424.105469 374.742188 L 425.949219 376.015625 L 425.523438 376.632812 L 423.679688 375.355469 M 426.5625 376.441406 L 428.402344 377.71875 L 427.976562 378.332031 L 426.136719 377.054688 M 429.015625 378.144531 L 430.859375 379.421875 L 430.433594 380.035156 L 428.589844 378.757812 M 431.472656 379.847656 L 433.3125 381.125 L 432.886719 381.738281 L 431.046875 380.460938 M 433.925781 381.550781 L 435.765625 382.824219 L 435.34375 383.441406 L 433.5 382.164062 M 436.382812 383.25 L 438.222656 384.527344 L 437.796875 385.140625 L 435.957031 383.863281 M 438.835938 384.953125 L 440.675781 386.230469 L 440.25 386.84375 L 438.410156 385.566406 M 441.289062 386.65625 L 443.132812 387.933594 L 442.707031 388.546875 L 440.863281 387.269531 M 443.746094 388.359375 L 445.585938 389.632812 L 445.160156 390.25 L 443.320312 388.972656 M 446.199219 390.058594 L 448.042969 391.335938 L 447.617188 391.949219 L 445.773438 390.671875 M 448.65625 391.761719 L 450.496094 393.039062 L 450.070312 393.652344 L 448.230469 392.375 M 451.109375 393.464844 L 452.949219 394.742188 L 452.527344 395.355469 L 450.683594 394.078125 M 453.566406 395.167969 L 455.40625 396.441406 L 454.980469 397.058594 L 453.140625 395.78125 M 456.019531 396.867188 L 457.859375 398.144531 L 457.433594 398.757812 L 455.59375 397.480469 M 458.472656 398.570312 L 460.316406 399.847656 L 459.890625 400.460938 L 458.050781 399.183594 M 460.929688 400.273438 L 462.769531 401.550781 L 462.34375 402.164062 L 460.503906 400.886719 M 463.382812 401.976562 L 465.226562 403.25 L 464.800781 403.867188 L 462.957031 402.589844 M 465.839844 403.675781 L 466.644531 404.238281 L 466.21875 404.851562 L 465.414062 404.289062 "/><g clip-rule="nonzero" clip-path="url(#cfd1bbc10e)"><g clip-rule="nonzero" clip-path="url(#17aa8660de)"><g clip-rule="nonzero" clip-path="url(#e7e483f975)"><path style=" stroke:none;fill-rule:nonzero;fill:#332e28;fill-opacity:1;" d="M 342.15625 308.125 L 356.152344 320.683594 L 344.332031 333.859375 L 330.335938 321.300781 Z M 342.15625 308.125 "/></g></g></g><g clip-rule="nonzero" clip-path="url(#57951db6ad)"><g clip-rule="nonzero" clip-path="url(#5ed5a2434d)"><g clip-rule="nonzero" clip-path="url(#a458429dd7)"><path style=" stroke:none;fill-rule:nonzero;fill:#4e483e;fill-opacity:1;" d="M 335.074219 312.007812 L 352.773438 327.886719 L 319.960938 364.457031 L 302.261719 348.578125 Z M 335.074219 312.007812 "/></g></g></g><path style=" stroke:none;fill-rule:nonzero;fill:#332e28;fill-opacity:1;" d="M 348.234375 316.003906 L 346.730469 317.664062 L 346.175781 317.164062 L 347.679688 315.5 M 346.230469 318.21875 L 344.726562 319.878906 L 344.171875 319.378906 L 345.675781 317.71875 M 344.226562 320.433594 L 342.726562 322.097656 L 342.171875 321.597656 L 343.671875 319.933594 M 342.222656 322.652344 L 340.722656 324.3125 L 340.167969 323.8125 L 341.667969 322.148438 M 340.222656 324.867188 L 338.71875 326.527344 L 338.164062 326.027344 L 339.667969 324.367188 M 338.21875 327.082031 L 336.714844 328.746094 L 336.160156 328.246094 L 337.664062 326.582031 M 336.214844 329.300781 L 334.710938 330.960938 L 334.160156 330.460938 L 335.660156 328.796875 M 334.210938 331.515625 L 332.710938 333.179688 L 332.15625 332.675781 L 333.65625 331.015625 M 332.210938 333.730469 L 330.707031 335.394531 L 330.152344 334.894531 L 331.65625 333.230469 M 330.207031 335.949219 L 328.703125 337.609375 L 328.148438 337.109375 L 329.652344 335.449219 M 328.203125 338.164062 L 326.699219 339.828125 L 326.148438 339.324219 L 327.648438 337.664062 M 326.199219 340.378906 L 324.699219 342.042969 L 324.144531 341.542969 L 325.644531 339.878906 M 324.199219 342.597656 L 322.695312 344.257812 L 322.140625 343.757812 L 323.644531 342.097656 M 322.195312 344.8125 L 320.691406 346.476562 L 320.136719 345.972656 L 321.640625 344.3125 M 320.191406 347.03125 L 318.6875 348.691406 L 318.136719 348.191406 L 319.636719 346.527344 M 318.1875 349.246094 L 316.6875 350.90625 L 316.132812 350.40625 L 317.632812 348.746094 M 316.1875 351.460938 L 314.683594 353.125 L 314.128906 352.625 L 315.632812 350.960938 M 314.183594 353.679688 L 312.679688 355.339844 L 312.125 354.839844 L 313.628906 353.175781 M 312.179688 355.894531 L 311.523438 356.621094 L 310.96875 356.121094 L 311.625 355.394531 "/><g clip-rule="nonzero" clip-path="url(#e47be35c60)"><g clip-rule="nonzero" clip-path="url(#06562e7079)"><g clip-rule="nonzero" clip-path="url(#4b21fde4bc)"><path style=" stroke:none;fill-rule:nonzero;fill:#332e28;fill-opacity:1;" d="M 404.527344 238.316406 L 422.296875 232.160156 L 428.089844 248.886719 L 410.320312 255.039062 Z M 404.527344 238.316406 "/></g></g></g><g clip-rule="nonzero" clip-path="url(#43250f07bb)"><g clip-rule="nonzero" clip-path="url(#333c7890bf)"><g clip-rule="nonzero" clip-path="url(#5d7ec766e7)"><path style=" stroke:none;fill-rule:nonzero;fill:#4e483e;fill-opacity:1;" d="M 404.488281 246.390625 L 426.957031 238.609375 L 443.039062 285.039062 L 420.570312 292.820312 Z M 404.488281 246.390625 "/></g></g></g><path style=" stroke:none;fill-rule:nonzero;fill:#332e28;fill-opacity:1;" d="M 414.363281 236.820312 L 415.089844 238.9375 L 414.382812 239.179688 L 413.65625 237.058594 M 415.332031 239.644531 L 416.054688 241.765625 L 415.351562 242.007812 L 414.625 239.886719 M 416.296875 242.472656 L 417.023438 244.589844 L 416.316406 244.832031 L 415.589844 242.714844 M 417.265625 245.296875 L 417.992188 247.417969 L 417.285156 247.660156 L 416.558594 245.539062 M 418.234375 248.125 L 418.957031 250.242188 L 418.25 250.484375 L 417.527344 248.367188 M 419.199219 250.949219 L 419.925781 253.070312 L 419.21875 253.3125 L 418.492188 251.191406 M 420.167969 253.777344 L 420.894531 255.894531 L 420.1875 256.136719 L 419.460938 254.019531 M 421.136719 256.601562 L 421.859375 258.722656 L 421.152344 258.964844 L 420.429688 256.84375 M 422.101562 259.429688 L 422.828125 261.546875 L 422.121094 261.789062 L 421.394531 259.671875 M 423.070312 262.253906 L 423.796875 264.375 L 423.089844 264.617188 L 422.363281 262.496094 M 424.039062 265.082031 L 424.761719 267.199219 L 424.054688 267.441406 L 423.332031 265.324219 M 425.003906 267.90625 L 425.730469 270.027344 L 425.023438 270.269531 L 424.296875 268.148438 M 425.972656 270.734375 L 426.699219 272.851562 L 425.992188 273.09375 L 425.265625 270.976562 M 426.941406 273.558594 L 427.664062 275.679688 L 426.957031 275.921875 L 426.234375 273.800781 M 427.90625 276.386719 L 428.632812 278.503906 L 427.925781 278.746094 L 427.199219 276.628906 M 428.875 279.210938 L 429.601562 281.332031 L 428.894531 281.574219 L 428.167969 279.453125 M 429.84375 282.039062 L 430.566406 284.15625 L 429.859375 284.398438 L 429.136719 282.28125 M 430.808594 284.863281 L 431.535156 286.984375 L 430.828125 287.226562 L 430.101562 285.105469 M 431.777344 287.691406 L 432.09375 288.621094 L 431.386719 288.859375 L 431.070312 287.933594 "/></g></svg>