<svg xmlns="http://www.w3.org/2000/svg" xmlns:xlink="http://www.w3.org/1999/xlink" width="1080" zoomAndPan="magnify" viewBox="0 0 810 809.999993" height="1080" preserveAspectRatio="xMidYMid meet" version="1.2"><defs><clipPath id="4669fcbac1"><path d="M 300.035156 65 L 515 65 L 515 271 L 300.035156 271 Z M 300.035156 65 "/></clipPath><clipPath id="9967ef001e"><path d="M 419.832031 72.496094 L 513.007812 247.460938 C 515.609375 252.347656 515.457031 258.238281 512.609375 262.984375 C 509.761719 267.726562 504.632812 270.632812 499.097656 270.632812 L 315.890625 270.632812 C 310.355469 270.632812 305.226562 267.726562 302.378906 262.984375 C 299.53125 258.238281 299.378906 252.347656 301.980469 247.460938 L 395.15625 72.496094 C 397.582031 67.9375 402.328125 65.089844 407.492188 65.089844 C 412.660156 65.089844 417.40625 67.9375 419.832031 72.496094 Z M 419.832031 72.496094 "/></clipPath><clipPath id="602b8f039e"><path d="M 256.074219 144.742188 L 553.925781 144.742188 L 553.925781 761 L 256.074219 761 Z M 256.074219 144.742188 "/></clipPath><clipPath id="b77bed6599"><path d="M 405 144.742188 C 322.75 144.742188 256.074219 282.621094 256.074219 452.703125 C 256.074219 622.785156 322.75 760.667969 405 760.667969 C 487.25 760.667969 553.925781 622.785156 553.925781 452.703125 C 553.925781 282.621094 487.25 144.742188 405 144.742188 Z M 405 144.742188 "/></clipPath></defs><g id="b1bd036d17"><g clip-rule="nonzero" clip-path="url(#4669fcbac1)"><g clip-rule="nonzero" clip-path="url(#9967ef001e)"><path style=" stroke:none;fill-rule:nonzero;fill:#332e28;fill-opacity:1;" d="M 289.640625 49.328125 L 525.203125 49.328125 L 525.203125 271.03125 L 289.640625 271.03125 Z M 289.640625 49.328125 "/></g></g><g clip-rule="nonzero" clip-path="url(#602b8f039e)"><g clip-rule="nonzero" clip-path="url(#b77bed6599)"><path style=" stroke:none;fill-rule:nonzero;fill:#4e483e;fill-opacity:1;" d="M 256.074219 144.742188 L 553.925781 144.742188 L 553.925781 760.230469 L 256.074219 760.230469 Z M 256.074219 144.742188 "/></g></g><path style=" stroke:none;fill-rule:nonzero;fill:#332e28;fill-opacity:1;" d="M 409.332031 68.65625 L 409.292969 79.6875 L 405.613281 79.671875 L 405.652344 68.640625 M 409.277344 83.363281 L 409.238281 94.394531 L 405.5625 94.382812 L 405.601562 83.351562 M 409.226562 98.074219 L 409.183594 109.105469 L 405.507812 109.089844 L 405.546875 98.058594 M 409.171875 112.78125 L 409.132812 123.8125 L 405.457031 123.800781 L 405.496094 112.769531 M 409.117188 127.488281 L 409.078125 138.519531 L 405.402344 138.507812 L 405.441406 127.476562 M 409.066406 142.199219 L 409.027344 153.230469 L 405.347656 153.21875 L 405.390625 142.183594 M 409.011719 156.90625 L 408.972656 167.9375 L 405.296875 167.925781 L 405.335938 156.894531 M 408.960938 171.617188 L 408.921875 182.648438 L 405.242188 182.632812 L 405.28125 171.601562 M 408.90625 186.324219 L 408.867188 197.355469 L 405.191406 197.34375 L 405.230469 186.3125 M 408.855469 201.035156 L 408.8125 212.066406 L 405.136719 212.050781 L 405.175781 201.019531 M 408.800781 215.742188 L 408.761719 226.773438 L 405.085938 226.761719 L 405.125 215.730469 M 408.75 230.453125 L 408.707031 241.484375 L 405.03125 241.46875 L 405.070312 230.4375 M 408.695312 245.160156 L 408.65625 256.191406 L 404.976562 256.179688 L 405.019531 245.148438 M 408.640625 259.867188 L 408.601562 270.902344 L 404.925781 270.886719 L 404.964844 259.855469 M 408.589844 274.578125 L 408.550781 285.609375 L 404.871094 285.597656 L 404.910156 274.5625 M 408.535156 289.285156 L 408.496094 300.316406 L 404.820312 300.304688 L 404.859375 289.273438 M 408.484375 303.996094 L 408.441406 315.027344 L 404.765625 315.011719 L 404.804688 303.980469 M 408.429688 318.703125 L 408.390625 329.734375 L 404.714844 329.722656 L 404.753906 318.691406 M 408.378906 333.414062 L 408.335938 344.445312 L 404.660156 344.429688 L 404.699219 333.398438 M 408.324219 348.121094 L 408.285156 359.152344 L 404.605469 359.140625 L 404.648438 348.109375 M 408.269531 362.832031 L 408.230469 373.863281 L 404.554688 373.847656 L 404.59375 362.816406 M 408.21875 377.539062 L 408.179688 388.570312 L 404.5 388.558594 L 404.539062 377.527344 M 408.164062 392.246094 L 408.125 403.28125 L 404.449219 403.265625 L 404.488281 392.234375 M 408.113281 406.957031 L 408.070312 417.988281 L 404.394531 417.976562 L 404.433594 406.945312 M 408.058594 421.664062 L 408.019531 432.695312 L 404.34375 432.683594 L 404.382812 421.652344 M 408.007812 436.375 L 407.964844 447.40625 L 404.289062 447.394531 L 404.328125 436.359375 M 407.953125 451.082031 L 407.914062 462.113281 L 404.234375 462.101562 L 404.277344 451.070312 M 407.898438 465.792969 L 407.859375 476.824219 L 404.183594 476.808594 L 404.222656 465.777344 M 407.847656 480.5 L 407.808594 491.53125 L 404.128906 491.519531 L 404.167969 480.488281 M 407.792969 495.210938 L 407.753906 506.242188 L 404.078125 506.226562 L 404.117188 495.195312 M 407.742188 509.917969 L 407.699219 520.949219 L 404.023438 520.9375 L 404.0625 509.90625 M 407.6875 524.625 L 407.648438 535.660156 L 403.972656 535.644531 L 404.011719 524.613281 M 407.636719 539.335938 L 407.59375 550.367188 L 403.917969 550.355469 L 403.957031 539.324219 M 407.582031 554.042969 L 407.542969 565.074219 L 403.863281 565.0625 L 403.90625 554.03125 M 407.527344 568.753906 L 407.488281 579.785156 L 403.8125 579.773438 L 403.851562 568.738281 M 407.476562 583.460938 L 407.4375 594.492188 L 403.757812 594.480469 L 403.796875 583.449219 M 407.421875 598.171875 L 407.382812 609.203125 L 403.707031 609.1875 L 403.746094 598.15625 M 407.371094 612.878906 L 407.328125 623.910156 L 403.652344 623.898438 L 403.691406 612.867188 M 407.316406 627.589844 L 407.277344 638.621094 L 403.601562 638.605469 L 403.640625 627.574219 M 407.265625 642.296875 L 407.222656 653.328125 L 403.546875 653.316406 L 403.585938 642.285156 M 407.210938 657.007812 L 407.171875 668.039062 L 403.492188 668.023438 L 403.535156 656.992188 M 407.15625 671.714844 L 407.117188 682.746094 L 403.441406 682.734375 L 403.480469 671.703125 M 407.105469 686.421875 L 407.066406 697.457031 L 403.386719 697.441406 L 403.425781 686.410156 M 407.050781 701.132812 L 407.011719 712.164062 L 403.335938 712.152344 L 403.375 701.117188 M 407 715.839844 L 406.957031 726.871094 L 403.28125 726.859375 L 403.320312 715.828125 M 406.945312 730.550781 L 406.90625 741.582031 L 403.230469 741.566406 L 403.269531 730.535156 M 406.894531 745.257812 L 406.851562 756.289062 L 403.175781 756.277344 L 403.214844 745.246094 M 406.839844 759.96875 L 406.835938 760.675781 L 403.160156 760.660156 L 403.164062 759.953125 "/></g></svg>