<svg xmlns="http://www.w3.org/2000/svg" xmlns:xlink="http://www.w3.org/1999/xlink" width="1080" zoomAndPan="magnify" viewBox="0 0 810 809.999993" height="1080" preserveAspectRatio="xMidYMid meet" version="1.2"><defs><clipPath id="adb91096d6"><path d="M 428 190 L 489 190 L 489 211 L 428 211 Z M 428 190 "/></clipPath><clipPath id="87a3afe582"><path d="M 551.558594 30.136719 L 230.09375 71.972656 L 322.203125 779.75 L 643.667969 737.910156 Z M 551.558594 30.136719 "/></clipPath><clipPath id="a1caed36d8"><path d="M 447.527344 131.960938 C 445.910156 131.578125 436.925781 129.449219 428.566406 127.101562 C 377.757812 112.804688 261.519531 75.53125 261.519531 75.53125 L 244.960938 70.214844 L 234.339844 103.339844 L 250.898438 108.621094 C 250.898438 108.621094 367.96875 146.175781 419.136719 160.5625 C 424.632812 162.125 429.425781 163.394531 433.339844 164.394531 L 609.496094 742.21875 L 642.769531 732.066406 L 463.570312 144.257812 C 461.371094 137.035156 454.839844 132.203125 447.527344 131.960938 Z M 447.527344 131.960938 "/></clipPath><clipPath id="bf837a44b7"><path d="M 430 157 L 491 157 L 491 179 L 430 179 Z M 430 157 "/></clipPath><clipPath id="368091aa4d"><path d="M 551.558594 30.136719 L 230.09375 71.972656 L 322.203125 779.75 L 643.667969 737.910156 Z M 551.558594 30.136719 "/></clipPath><clipPath id="aa255fbc22"><path d="M 447.527344 131.960938 C 445.910156 131.578125 436.925781 129.449219 428.566406 127.101562 C 377.757812 112.804688 261.519531 75.53125 261.519531 75.53125 L 244.960938 70.214844 L 234.339844 103.339844 L 250.898438 108.621094 C 250.898438 108.621094 367.96875 146.175781 419.136719 160.5625 C 424.632812 162.125 429.425781 163.394531 433.339844 164.394531 L 609.496094 742.21875 L 642.769531 732.066406 L 463.570312 144.257812 C 461.371094 137.035156 454.839844 132.203125 447.527344 131.960938 Z M 447.527344 131.960938 "/></clipPath><clipPath id="43ea3bd203"><path d="M 433 215 L 495 215 L 495 237 L 433 237 Z M 433 215 "/></clipPath><clipPath id="8478e94e05"><path d="M 551.558594 30.136719 L 230.09375 71.972656 L 322.203125 779.75 L 643.667969 737.910156 Z M 551.558594 30.136719 "/></clipPath><clipPath id="e32214b873"><path d="M 447.527344 131.960938 C 445.910156 131.578125 436.925781 129.449219 428.566406 127.101562 C 377.757812 112.804688 261.519531 75.53125 261.519531 75.53125 L 244.960938 70.214844 L 234.339844 103.339844 L 250.898438 108.621094 C 250.898438 108.621094 367.96875 146.175781 419.136719 160.5625 C 424.632812 162.125 429.425781 163.394531 433.339844 164.394531 L 609.496094 742.21875 L 642.769531 732.066406 L 463.570312 144.257812 C 461.371094 137.035156 454.839844 132.203125 447.527344 131.960938 Z M 447.527344 131.960938 "/></clipPath></defs><g id="fc4208da69"><path style=" stroke:none;fill-rule:evenodd;fill:#000000;fill-opacity:1;" d="M 447.527344 131.960938 C 445.910156 131.578125 436.925781 129.449219 428.566406 127.097656 C 377.757812 112.804688 261.519531 75.53125 261.519531 75.53125 L 244.960938 70.214844 L 234.339844 103.339844 L 250.898438 108.621094 C 250.898438 108.621094 367.96875 146.175781 419.136719 160.5625 C 424.632812 162.125 429.425781 163.394531 433.339844 164.394531 L 609.496094 742.21875 L 642.769531 732.066406 L 463.570312 144.257812 C 461.371094 137.035156 454.839844 132.203125 447.527344 131.960938 Z M 447.527344 131.960938 "/><g clip-rule="nonzero" clip-path="url(#adb91096d6)"><g clip-rule="nonzero" clip-path="url(#87a3afe582)"><g clip-rule="evenodd" clip-path="url(#a1caed36d8)"><path style=" stroke:none;fill-rule:evenodd;fill:#000000;fill-opacity:1;" d="M 483.851562 201.546875 L 434.773438 210.550781 C 431.671875 211.113281 428.683594 209.046875 428.113281 205.933594 C 427.546875 202.820312 429.597656 199.835938 432.703125 199.273438 L 481.78125 190.269531 C 484.882812 189.703125 487.871094 191.769531 488.441406 194.886719 C 489.007812 198 486.953125 200.984375 483.851562 201.546875 Z M 483.851562 201.546875 "/></g></g></g><g clip-rule="nonzero" clip-path="url(#bf837a44b7)"><g clip-rule="nonzero" clip-path="url(#368091aa4d)"><g clip-rule="evenodd" clip-path="url(#aa255fbc22)"><path style=" stroke:none;fill-rule:evenodd;fill:#000000;fill-opacity:1;" d="M 486.210938 169.351562 L 437.136719 178.355469 C 434.03125 178.917969 431.042969 176.855469 430.472656 173.738281 C 429.90625 170.625 431.960938 167.640625 435.0625 167.078125 L 484.140625 158.074219 C 487.246094 157.511719 490.230469 159.574219 490.800781 162.691406 C 491.371094 165.804688 489.316406 168.789062 486.210938 169.351562 Z M 486.210938 169.351562 "/></g></g></g><g clip-rule="nonzero" clip-path="url(#43ea3bd203)"><g clip-rule="nonzero" clip-path="url(#8478e94e05)"><g clip-rule="evenodd" clip-path="url(#e32214b873)"><path style=" stroke:none;fill-rule:evenodd;fill:#000000;fill-opacity:1;" d="M 489.78125 227.101562 L 440.703125 236.109375 C 437.597656 236.671875 434.609375 234.605469 434.042969 231.488281 C 433.472656 228.378906 435.527344 225.390625 438.632812 224.828125 L 487.707031 215.824219 C 490.8125 215.261719 493.800781 217.328125 494.371094 220.441406 C 494.9375 223.554688 492.882812 226.539062 489.78125 227.101562 Z M 489.78125 227.101562 "/></g></g></g></g></svg>